<?xml version="1.0" encoding="UTF-8" standalone="no"?>
<!-- Created with Inkscape (http://www.inkscape.org/) -->

<svg
   width="142.79878mm"
   height="40.676498mm"
   viewBox="0 0 142.79878 40.676498"
   version="1.1"
   id="svg1"
   xml:space="preserve"
   inkscape:export-filename="ReadIt-logo.svg"
   inkscape:export-xdpi="96"
   inkscape:export-ydpi="96"
   xmlns:inkscape="http://www.inkscape.org/namespaces/inkscape"
   xmlns:sodipodi="http://sodipodi.sourceforge.net/DTD/sodipodi-0.dtd"
   xmlns="http://www.w3.org/2000/svg"
   xmlns:svg="http://www.w3.org/2000/svg"><sodipodi:namedview
     id="namedview1"
     pagecolor="#ffffff"
     bordercolor="#000000"
     borderopacity="0.25"
     inkscape:showpageshadow="2"
     inkscape:pageopacity="0.0"
     inkscape:pagecheckerboard="0"
     inkscape:deskcolor="#d1d1d1"
     inkscape:document-units="mm" /><defs
     id="defs1" /><g
     inkscape:label="Warstwa 1"
     inkscape:groupmode="layer"
     id="layer1"
     transform="translate(-32.563447,-58.709296)"><g
       inkscape:label="Warstwa 1"
       id="layer1-9"
       transform="translate(8.7000901,37.350942)"><text
         xml:space="preserve"
         style="font-size:50.8px;font-family:Jost;-inkscape-font-specification:Jost;fill:#000000;stroke-width:0.264583"
         x="20.002556"
         y="61.526855"
         id="text1"><tspan
           sodipodi:role="line"
           id="tspan1"
           style="stroke-width:0.264583"
           x="20.002556"
           y="61.526855">Read t</tspan></text><g
         transform="matrix(0.00291334,0,0,-0.00289859,125.36101,75.905987)"
         fill="#000000"
         stroke="none"
         id="g5"><path
           d="m 5010,18621 -35,-6 -3,-707 -2,-708 h 1130 1130 v 703 c 0,533 -3,706 -12,715 -9,9 -264,12 -1092,11 -595,-1 -1097,-4 -1116,-8 z"
           id="path1" /><path
           d="m 4970,16855 v -265 h 1130 1130 v 265 265 H 6100 4970 Z"
           id="path2" /><path
           d="M 4970,11855 V 7200 l 1128,2 1127,3 3,4653 2,4652 H 6100 4970 Z"
           id="path3" /><path
           d="m 5748,7083.6675 -778,-1.915 v -22.0219 c 0,-20.1069 936,-1841.2206 962,-1870.9023 8,-10.5322 45,-12.4472 165,-10.5322 l 155,2.8724 92,186.7072 c 115,231.7085 433,861.7258 680,1348.1221 102,202.0268 186,368.6271 186,371.4996 0,1.9149 -154,2.8724 -342,1.9149 -189,-1.9149 -693,-3.8299 -1120,-5.7448 z"
           id="path4"
           style="stroke-width:0.978506" /><path
           d="m 5961,5083 c 0,-5 30,-68 67,-141 l 67,-132 67,140 66,140 h -134 c -74,0 -134,-3 -133,-7 z"
           id="path5" /></g></g><path
       style="fill:#70e000;fill-opacity:1;stroke-width:0.251896"
       d="M 87.731875,74.252812 C 86.989691,74.050739 86.851952,73.98885 85.671321,73.326984 84.972288,72.9351 84.75326,72.840513 84.323996,72.745126 c -0.250642,-0.05568 -0.354259,-0.05776 -1.329571,-0.02648 -0.581758,0.01862 -1.106552,0.03681 -1.166206,0.04034 -0.139958,0.0083 -0.989046,0.02686 -1.407444,0.03077 -0.3553,0.0034 -2.440795,0.05087 -4.208989,0.09593 -0.617894,0.01574 -1.464475,0.03599 -1.881291,0.04499 -0.416814,0.009 -1.775055,0.04267 -3.01831,0.07482 -3.026753,0.07828 -2.779744,0.07989 -2.904302,-0.01878 -0.07022,-0.05561 -0.12496,-0.140475 -0.172465,-0.267369 -0.0643,-0.171741 -0.06752,-0.204961 -0.04239,-0.436871 0.04952,-0.457057 0.226182,-0.812444 0.433632,-0.872349 0.05515,-0.01593 0.80689,-0.04831 1.670531,-0.07193 0.863644,-0.02367 1.710466,-0.04897 1.881833,-0.0563 0.309531,-0.01328 1.838229,-0.05212 4.534375,-0.115319 0.774154,-0.01815 2.114237,-0.05379 2.977965,-0.07922 1.511109,-0.04448 1.633069,-0.04331 3.229524,0.0312 1.891276,0.08818 1.829152,0.07829 2.513101,0.403229 0.385475,0.183127 0.711667,0.397453 1.227636,0.806646 0.143256,0.113609 0.325178,0.252514 0.40427,0.308686 l 0.143807,0.102113 0.97182,0.0321 0.971821,0.03211 0.330153,-0.118671 c 0.181581,-0.06527 0.480469,-0.208573 0.664193,-0.318451 0.860873,-0.514864 1.515386,-0.879072 1.652903,-0.919762 0.307107,-0.09089 1.118778,-0.230166 1.526696,-0.261977 0.231365,-0.01809 0.50574,-0.04199 0.609718,-0.05313 0.10398,-0.01123 0.676784,0.0118 1.272897,0.05109 0.734087,0.04838 1.187426,0.06401 1.40483,0.04842 0.503358,-0.03615 1.620789,-0.02373 3.29229,0.03649 0.846167,0.03045 1.641617,0.06153 1.767647,0.06908 0.12603,0.0079 1.48923,-0.0023 3.02929,-0.0218 1.54006,-0.01948 2.95987,-0.02304 3.15511,-0.0079 0.30805,0.0239 0.36462,0.03706 0.42783,0.09952 0.11173,0.110545 0.15955,0.286456 0.16043,0.590276 l 8.4e-4,0.270229 -0.10974,0.12628 c -0.0603,0.06943 -0.14634,0.147437 -0.19108,0.173305 -0.10132,0.0586 0.23278,0.05132 -7.03921,0.152931 -1.02677,0.01435 -2.098213,0.03003 -2.38098,0.03484 -0.282785,0.0048 -1.122904,0.01728 -1.866947,0.02774 -0.744038,0.01039 -1.699107,0.02454 -2.122368,0.03134 -0.9955,0.01602 -1.316286,-1.65e-4 -1.521667,-0.07655 -0.118749,-0.04427 -0.244225,-0.0609 -0.460615,-0.06104 -0.251379,-1.43e-4 -0.346344,0.01677 -0.6136,0.109317 -0.37241,0.129003 -0.95121,0.414463 -1.052354,0.519014 -0.149261,0.154301 -0.840557,0.598843 -0.98369,0.632567 -0.07883,0.01857 -0.193469,0.05821 -0.254757,0.08807 -0.150933,0.07349 -0.961536,0.272171 -1.230505,0.301528 -0.3068,0.03349 -0.579596,0.01101 -0.888737,-0.07317 z m -1.347148,-0.66211 c -0.0083,-0.01863 -0.02955,-0.03438 -0.04724,-0.03497 -0.01931,-6.73e-4 -0.01662,0.01253 0.0067,0.03302 0.04986,0.04359 0.0592,0.04404 0.04046,0.0019 z m -1.908176,-0.943837 c -0.01811,-0.01008 -0.04845,-0.01154 -0.06744,-0.0032 -0.01899,0.0083 -0.0042,0.01654 0.03292,0.01832 0.03709,0.0018 0.05264,-0.0054 0.03452,-0.01508 z m -0.193445,-0.05373 c 8.73e-4,-0.01819 -0.0037,-0.0334 -0.01031,-0.03371 -0.0066,-3.16e-4 -0.02012,0.01402 -0.03016,0.03177 -0.01006,0.01775 -0.0055,0.03296 0.01031,0.03371 0.01571,7.54e-4 0.02929,-0.01358 0.03016,-0.03177 z m 1.26924,-0.0149 c -0.0059,-0.0056 -0.03402,-0.03293 -0.06241,-0.06111 -0.04774,-0.04734 -0.04905,-0.04671 -0.01738,0.0086 0.01882,0.0329 0.04692,0.06037 0.0624,0.06111 0.01549,7.44e-4 0.02331,-0.0033 0.01738,-0.0086 z m 1.064146,-0.154528 c 4.22e-4,-0.0088 -0.03455,-0.04057 -0.0777,-0.07105 -0.09836,-0.06933 -0.105842,-0.04163 -0.0082,0.03046 0.08206,0.06056 0.0849,0.06193 0.08592,0.04059 z m -0.339565,-0.248452 c 4.22e-4,-0.0088 -0.02579,-0.03297 -0.05822,-0.05442 -0.05662,-0.03752 -0.05698,-0.03692 -0.009,0.01499 0.05244,0.05678 0.06608,0.06479 0.0673,0.03943 z m -0.287188,-0.213042 c 4.22e-4,-0.0088 -0.02579,-0.03297 -0.05823,-0.05442 -0.05662,-0.03752 -0.05697,-0.03692 -0.009,0.01499 0.05244,0.05678 0.06607,0.06479 0.06729,0.03943 z M 81.72611,71.22502 c -0.02757,-0.04532 0.0484,-0.04843 0.653611,-0.02613 l 0.684818,0.02497 -0.65994,-0.04119 c -0.362962,-0.02273 -0.675468,-0.03503 -0.694461,-0.02723 -0.03907,0.01618 -0.02229,0.117032 0.0198,0.119053 0.01578,7.57e-4 0.01418,-0.02044 -0.0038,-0.04997 z m 3.174401,0.182098 c -0.0085,-0.01145 -0.03165,-0.0137 -0.05158,-0.0051 -0.02203,0.0096 -0.01602,0.01773 0.01534,0.02081 0.02835,0.0032 0.04466,-0.004 0.03623,-0.0157 z m -0.133288,-0.03962 c -0.0085,-0.01145 -0.03164,-0.0137 -0.05158,-0.0051 -0.02203,0.0095 -0.01602,0.01772 0.01533,0.02081 0.02835,0.0032 0.04466,-0.004 0.03624,-0.0157 z m -0.200071,-0.04475 c -0.01811,-0.01008 -0.04845,-0.01154 -0.06744,-0.0032 -0.01899,0.0083 -0.0042,0.01654 0.03292,0.01832 0.03709,0.0018 0.05264,-0.0054 0.03452,-0.01508 z m -0.524305,-0.06111 c -0.114691,-0.01161 -0.302848,-0.02065 -0.418123,-0.02007 -0.115277,5.73e-4 -0.02145,0.01027 0.20852,0.02131 0.229967,0.01104 0.3243,0.01026 0.209603,-0.0012 z m 3.459533,-0.587883 c -0.16739,-0.243109 -0.437004,-0.573163 -0.701218,-0.85841 -0.549614,-0.593373 -1.436977,-1.498673 -1.654762,-1.688213 -0.211132,-0.183742 -0.762908,-0.545661 -1.244481,-0.816263 -0.366074,-0.205704 -1.224967,-0.612047 -1.42824,-0.675706 -0.07486,-0.02341 -0.104686,-0.04965 -0.100292,-0.088 0.0051,-0.04429 -0.0041,-0.04858 -0.04818,-0.02248 -0.03908,0.0231 -0.13117,0.01396 -0.326528,-0.0325 -0.852823,-0.202712 -1.178803,-0.252512 -1.897077,-0.289797 -0.441019,-0.02297 -0.813636,-0.02564 -0.973022,-0.0071 -0.41264,0.04786 -1.280724,0.293701 -1.726857,0.488967 -0.960757,0.420518 -1.284173,0.568808 -1.459321,0.669096 -0.675891,0.387042 -1.85551,0.535368 -3.288777,0.413533 l -0.656755,-0.05581 -0.03359,-0.09189 c -0.06615,-0.18092 0.02869,-1.770025 0.141885,-2.377372 0.03107,-0.16676 0.125568,-0.215948 0.398865,-0.207615 0.270912,0.0086 1.102451,-0.0663 1.534378,-0.137591 0.165885,-0.02737 0.523647,-0.112889 0.795023,-0.190019 0.271378,-0.07713 0.641397,-0.181447 0.822264,-0.231803 0.180869,-0.0504 0.576869,-0.189042 0.880004,-0.308186 0.303136,-0.119144 0.588066,-0.225137 0.633179,-0.235551 0.04511,-0.01046 0.285894,-0.08386 0.535073,-0.163226 1.227883,-0.391083 1.610846,-0.444483 2.814549,-0.392477 0.670209,0.02867 0.765769,0.04026 1.145201,0.137809 0.611312,0.156914 0.87345,0.22382 1.078389,0.275251 0.132141,0.03316 0.186178,0.06171 0.192731,0.101899 0.0054,0.03305 0.07948,0.09095 0.181451,0.141819 0.589239,0.294065 1.192072,0.820015 1.953714,1.704536 1.131375,1.31392 1.449148,1.705227 1.922784,2.367744 0.499013,0.698018 0.790672,1.173503 0.939701,1.53199 0.06369,0.15318 0.122101,0.279468 0.129818,0.280627 0.0078,0.0011 0.05812,-0.216197 0.112019,-0.483026 0.169795,-0.840633 0.263687,-1.192507 0.400284,-1.500117 0.182116,-0.410113 0.209619,-0.480462 0.324987,-0.831245 0.05618,-0.170822 0.118583,-0.339689 0.138667,-0.375252 0.128917,-0.228287 0.351296,-0.816167 0.527901,-1.39555 0.120551,-0.395484 0.232839,-0.632828 0.533297,-1.12725 0.331686,-0.545808 1.598879,-1.937602 2.291265,-2.516559 0.186235,-0.155725 0.66281,-0.491552 0.923487,-0.650743 0.09192,-0.05616 0.34295,-0.21634 0.557845,-0.355998 0.214895,-0.139659 0.471935,-0.298287 0.571198,-0.352525 0.09926,-0.05423 0.287146,-0.166265 0.41752,-0.248971 0.36477,-0.231385 0.758968,-0.386341 1.639692,-0.644536 0.211164,-0.06192 0.551352,-0.178469 0.755974,-0.25903 0.533245,-0.209921 0.823266,-0.291626 0.846858,-0.238547 0.01472,0.03305 0.07341,0.03008 0.269257,-0.01355 0.475997,-0.10599 1.470353,-0.18587 2.20309,-0.176984 0.27495,0.0033 0.58561,-0.0053 0.69039,-0.01919 0.30594,-0.04054 0.87809,-0.01097 0.97095,0.05011 0.11832,0.07782 0.20985,0.369602 0.23415,0.746462 0.0201,0.312521 0.005,0.400563 -0.0719,0.43262 -0.12108,0.05011 -0.48675,0.06306 -0.71674,0.02546 -0.37047,-0.06064 -1.45293,-0.0068 -2.822187,0.14041 -0.4157,0.04474 -0.578933,0.07926 -0.942381,0.199503 -0.641131,0.212132 -1.675176,0.608016 -2.00889,0.769109 -0.20931,0.101041 -0.772958,0.449352 -1.124062,0.694639 -0.173474,0.121188 -0.425165,0.295177 -0.559317,0.386634 -0.134153,0.09147 -0.417155,0.305781 -0.628898,0.476263 -0.21174,0.170472 -0.401458,0.309165 -0.421593,0.308198 -0.07032,-0.0034 -0.658504,0.5478 -1.071314,1.003905 -0.228874,0.252872 -0.436828,0.472571 -0.462126,0.488231 -0.02529,0.01562 -0.108119,0.125823 -0.184053,0.244821 -0.07593,0.118997 -0.174306,0.263529 -0.218603,0.321185 -0.183169,0.238412 -0.430876,0.691195 -0.570523,1.042855 -0.08185,0.206117 -0.192266,0.469812 -0.245365,0.585988 -0.0531,0.116174 -0.127013,0.299434 -0.164251,0.407237 -0.08218,0.237947 -0.235764,0.809924 -0.222346,0.828125 0.0054,0.0073 0.103448,-0.138477 0.218072,-0.323754 0.36725,-0.593636 1.324403,-1.744666 1.816611,-2.1846 0.182162,-0.16281 0.33972,-0.311103 0.350131,-0.329529 0.03502,-0.06204 0.563404,-0.48563 0.899682,-0.721311 0.64101,-0.449271 1.251276,-0.681293 1.925553,-0.732113 0.149246,-0.01125 0.442733,-0.04204 0.652187,-0.06835 0.513214,-0.06453 0.984294,-0.08311 1.774338,-0.06997 0.6872,0.01142 1.125779,0.05755 2.098278,0.22214 0.287647,0.04861 0.662127,0.104799 0.832177,0.124976 0.17004,0.02017 0.3454,0.04218 0.38968,0.04904 0.12919,0.01997 0.55425,0.140106 0.77906,0.220243 0.11398,0.04062 0.32748,0.103411 0.47445,0.13951 0.35913,0.08824 1.0069,0.298301 1.03699,0.336316 0.0133,0.01686 0.0595,0.03231 0.10263,0.03438 0.0756,0.0036 0.81357,0.266868 0.95091,0.339214 0.037,0.01949 0.17218,0.06498 0.30044,0.101032 0.27604,0.0776 0.41219,0.15882 0.42413,0.252916 0.043,0.338645 0.0863,2.158922 0.0528,2.21828 -0.0243,0.04302 -0.28561,0.01521 -0.40069,-0.04264 -0.13348,-0.06716 -0.75787,-0.25108 -0.87083,-0.256503 -0.0811,-0.0039 -0.47505,-0.102226 -0.90403,-0.225717 -0.11001,-0.03166 -0.41741,-0.09139 -0.68309,-0.132706 -0.26569,-0.04133 -0.51275,-0.09053 -0.54904,-0.109281 -0.16184,-0.08377 -1.01854,-0.193337 -1.09608,-0.140097 -0.0168,0.01147 -0.22135,-0.01012 -0.45465,-0.04812 -0.233307,-0.03793 -0.654057,-0.09626 -0.934993,-0.129561 -0.546066,-0.0647 -0.649449,-0.07921 -1.087731,-0.15218 -0.340362,-0.05666 -1.167606,-0.04814 -1.690699,0.01739 -1.147257,0.143806 -2.62164,0.430314 -3.179569,0.617872 -0.234277,0.07875 -0.475871,0.169066 -0.536872,0.200684 -0.06101,0.03161 -0.216678,0.106377 -0.345947,0.166142 -0.58869,0.272154 -0.818119,0.485939 -1.779098,1.657763 -0.324257,0.395402 -0.865238,1.035983 -1.202179,1.4235 l -0.612617,0.704587 -0.463543,-0.0034 c -0.254951,-0.0019 -0.482693,0.0048 -0.506087,0.01471 -0.0296,0.0126 -0.125247,-0.102003 -0.314503,-0.376853 z m 0.437301,0.246491 c -0.01783,-0.01 -0.05423,-0.01221 -0.08089,-0.0048 -0.02667,0.0075 -0.01206,0.01529 0.03241,0.01812 0.04447,0.0029 0.06628,-0.0029 0.04845,-0.01301 z m 0.977,-0.155476 c 0.03608,-0.05095 0.03518,-0.05213 -0.0096,-0.013 -0.02717,0.02376 -0.04966,0.04881 -0.04999,0.05572 -0.0013,0.02729 0.02168,0.01075 0.05957,-0.04272 z m 0.369114,-0.438917 c 0.148671,-0.166382 0.264242,-0.302805 0.256826,-0.303161 -0.0074,-3.55e-4 -0.135129,0.135484 -0.283801,0.301866 -0.148674,0.166382 -0.264246,0.302813 -0.256826,0.303169 0.0074,3.55e-4 0.135129,-0.135492 0.283801,-0.301874 z m -1.739445,0.187968 c 2.93e-4,-0.0061 -0.03113,-0.04857 -0.06981,-0.09468 l -0.07033,-0.08385 0.06103,0.09426 c 0.05703,0.08812 0.07786,0.110286 0.07911,0.08427 z M 87.2655,70.168668 c 2.93e-4,-0.0061 -0.03686,-0.05603 -0.0825,-0.111894 l -0.083,-0.101526 0.07407,0.111488 c 0.06904,0.103919 0.09021,0.127526 0.09144,0.101932 z m 0.788709,-0.09605 c 2.93e-4,-0.0061 -0.0254,-0.04111 -0.05711,-0.07743 l -0.05767,-0.06606 0.04781,0.07698 c 0.04493,0.07237 0.0657,0.093 0.06697,0.06651 z m 0.106618,-0.08759 c -0.0055,-0.02516 -0.0185,-0.0107 -0.03019,0.03361 -0.01437,0.05453 -0.01146,0.06765 0.0097,0.04404 0.0166,-0.01849 0.02582,-0.05346 0.02047,-0.07765 z m -1.07451,-0.02633 c 3.35e-4,-0.007 -0.01965,-0.03399 -0.04442,-0.06025 -0.0408,-0.04325 -0.04182,-0.04215 -0.01079,0.01202 0.03259,0.05688 0.0539,0.07552 0.05521,0.04823 z m 1.106694,-0.139818 c -0.0073,-0.02682 -0.01411,-0.01935 -0.01726,0.01924 -0.0029,0.03484 0.0027,0.05474 0.01208,0.04415 0.0095,-0.01058 0.01179,-0.03914 0.005,-0.0634 z m -1.338393,-0.102732 c 2.93e-4,-0.0061 -0.0254,-0.04111 -0.05712,-0.07743 l -0.05766,-0.06606 0.04781,0.07698 c 0.04493,0.07237 0.0657,0.093 0.06697,0.06651 z m 1.37445,-0.09691 c -0.0063,-0.02309 -0.01339,-0.005 -0.01559,0.04072 -0.0022,0.04557 0.003,0.06449 0.01162,0.04211 0.0086,-0.02238 0.01037,-0.05972 0.004,-0.08282 z m 1.715339,-0.0588 c 0.0854,-0.09636 0.149202,-0.175491 0.141783,-0.175847 -0.0074,-3.55e-4 -0.08336,0.07822 -0.168758,0.174552 -0.0854,0.09637 -0.149202,0.17549 -0.141784,0.175846 0.0074,3.55e-4 0.08337,-0.07822 0.168759,-0.174551 z m -3.24364,-0.0188 c 3.35e-4,-0.007 -0.01965,-0.03399 -0.04442,-0.06025 -0.0408,-0.04325 -0.04182,-0.04215 -0.01079,0.01202 0.03259,0.05688 0.05389,0.07552 0.0552,0.04823 z m -0.128516,-0.139006 c 3.36e-4,-0.007 -0.01965,-0.03399 -0.04442,-0.06025 -0.0408,-0.04325 -0.04182,-0.04215 -0.01079,0.01202 0.03259,0.05688 0.0539,0.07552 0.05521,0.04823 z m -0.103137,-0.104445 c 3.35e-4,-0.007 -0.01965,-0.03399 -0.04442,-0.06025 -0.0408,-0.04325 -0.04182,-0.04215 -0.01079,0.01202 0.0326,0.05688 0.0539,0.07552 0.05521,0.04823 z m 1.82868,0.02765 c -0.0073,-0.02682 -0.01411,-0.01926 -0.01726,0.01925 -0.0029,0.03484 0.0027,0.05474 0.01208,0.04415 0.0095,-0.01059 0.01179,-0.03914 0.005,-0.0634 z m -1.931811,-0.13227 c 3.36e-4,-0.007 -0.01965,-0.03399 -0.04442,-0.06025 -0.0408,-0.04325 -0.04182,-0.04215 -0.01079,0.01202 0.03259,0.05688 0.0539,0.07552 0.05521,0.04823 z m 1.269366,0.02947 c 2.93e-4,-0.0061 -0.03113,-0.04857 -0.06981,-0.09468 l -0.07033,-0.08385 0.06102,0.09426 c 0.05703,0.08812 0.07787,0.110287 0.07912,0.08427 z m 0.697371,-0.06154 c -0.0073,-0.02682 -0.01411,-0.01926 -0.01726,0.01924 -0.0029,0.03484 0.0027,0.05474 0.01208,0.04415 0.0095,-0.01059 0.01179,-0.03914 0.005,-0.0634 z m -2.069869,-0.07245 c 3.36e-4,-0.007 -0.01965,-0.03399 -0.04442,-0.06025 -0.0408,-0.04325 -0.04182,-0.04215 -0.01079,0.01202 0.03259,0.05688 0.0539,0.07552 0.05521,0.04823 z m 4.025935,0.05636 c 0.05339,-0.06134 0.09101,-0.111857 0.08359,-0.112213 -0.0074,-3.55e-4 -0.05717,0.04959 -0.110566,0.110918 -0.05339,0.06134 -0.09101,0.111866 -0.08359,0.112222 0.0074,3.55e-4 0.05717,-0.04959 0.110566,-0.110927 z M 86.15972,68.984449 c 3.36e-4,-0.007 -0.01965,-0.03399 -0.04442,-0.06025 -0.0408,-0.04325 -0.04182,-0.04215 -0.01079,0.01202 0.03259,0.05688 0.0539,0.07552 0.05521,0.04823 z m 1.324938,-0.0017 c 2.92e-4,-0.0061 -0.0254,-0.04111 -0.05711,-0.07743 l -0.05766,-0.06606 0.04781,0.07698 c 0.04493,0.07237 0.0657,0.093 0.06697,0.06651 z m -1.428069,-0.102833 c 3.36e-4,-0.007 -0.01965,-0.03399 -0.04442,-0.06025 -0.0408,-0.04325 -0.04182,-0.04215 -0.01079,0.01202 0.03259,0.05688 0.0539,0.07552 0.05521,0.04823 z m -0.103132,-0.104575 c 3.35e-4,-0.007 -0.01966,-0.03399 -0.04442,-0.06025 -0.0408,-0.04325 -0.04182,-0.04215 -0.01079,0.01202 0.03259,0.05688 0.0539,0.07552 0.05521,0.04823 z m 4.636862,0.0027 c 0.06145,-0.07015 0.105657,-0.127765 0.09824,-0.128121 -0.0074,-3.55e-4 -0.06376,0.05672 -0.125214,0.126826 -0.06144,0.07007 -0.105658,0.127764 -0.09824,0.128121 0.0074,3.55e-4 0.06376,-0.05672 0.125214,-0.126826 z m -3.281886,-0.06691 c 2.54e-4,-0.0053 -0.105428,-0.14825 -0.234812,-0.318461 l -0.235243,-0.309487 0.227505,0.31811 c 0.211305,0.295452 0.241395,0.333889 0.24255,0.309838 z m 1.12907,-0.04266 c -0.0073,-0.02682 -0.01411,-0.01926 -0.01726,0.01924 -0.0029,0.03484 0.0027,0.05474 0.01208,0.04415 0.0095,-0.01059 0.01179,-0.03914 0.005,-0.0634 z m -2.715742,-0.135672 c 2.92e-4,-0.0061 -0.0254,-0.04111 -0.05711,-0.07743 l -0.05767,-0.06606 0.04781,0.07698 c 0.04493,0.07237 0.0657,0.093 0.06697,0.06651 z m 5.141532,-0.09042 c 0.05339,-0.06134 0.09101,-0.111866 0.08359,-0.112222 -0.0074,-3.55e-4 -0.05717,0.04959 -0.110565,0.110927 -0.05339,0.06134 -0.091,0.111866 -0.08359,0.112222 0.0074,3.54e-4 0.05717,-0.04959 0.110567,-0.110926 z M 88.6378,68.036659 c 8.74e-4,-0.01819 -0.01126,-0.01132 -0.02694,0.01528 -0.01571,0.02669 -0.02925,0.06338 -0.03013,0.08157 -8.73e-4,0.01819 0.01126,0.01132 0.02694,-0.01528 0.0157,-0.0266 0.02925,-0.06338 0.03012,-0.08157 z m 1.233756,0.110504 c -0.0164,-0.03647 -0.03535,-0.06016 -0.04211,-0.0526 -0.01223,0.01361 0.04169,0.117526 0.06151,0.118477 0.0058,2.79e-4 -0.003,-0.02934 -0.01942,-0.0658 z m 1.394327,-0.191947 0.213972,-0.24711 -0.220952,0.237641 c -0.205213,0.220707 -0.234134,0.255267 -0.214405,0.256214 0.0041,1.97e-4 0.103704,-0.110844 0.221385,-0.246745 z m -6.321389,-0.127934 c 4.22e-4,-0.0088 -0.02579,-0.03297 -0.05823,-0.05442 -0.05662,-0.03752 -0.05698,-0.03692 -0.009,0.01499 0.05244,0.05678 0.06608,0.06479 0.0673,0.03943 z m 5.130864,0.203613 c 0.03608,-0.05095 0.03518,-0.05213 -0.0096,-0.013 -0.02717,0.02376 -0.04966,0.04881 -0.04999,0.05572 -0.0013,0.02729 0.02168,0.01075 0.05958,-0.04272 z m -0.166784,-0.155377 c -0.0073,-0.02682 -0.01411,-0.01926 -0.01726,0.01924 -0.0029,0.03484 0.0027,0.05474 0.01208,0.04415 0.0095,-0.01059 0.01179,-0.03914 0.005,-0.0634 z m 0.293086,-0.01293 c 0.02861,-0.03518 0.04594,-0.06424 0.03852,-0.0646 -0.0074,-3.55e-4 -0.0369,0.02812 -0.06549,0.0633 -0.02861,0.03518 -0.04594,0.06424 -0.03852,0.0646 0.0074,3.54e-4 0.0369,-0.02812 0.06549,-0.0633 z m -1.388848,-0.183781 c -0.0078,-0.01063 -0.02378,0.0068 -0.03548,0.03923 -0.01691,0.04652 -0.014,0.05052 0.0142,0.01926 0.01953,-0.02159 0.02909,-0.04796 0.02127,-0.0585 z m -2.367415,-0.139505 c 2.55e-4,-0.0053 -0.04257,-0.06366 -0.09519,-0.129105 l -0.09568,-0.119039 0.087,0.128712 c 0.08098,0.119798 0.102656,0.144734 0.10387,0.119432 z m 2.458781,-0.143785 c -0.0073,-0.02682 -0.01411,-0.01926 -0.01726,0.01925 -0.0029,0.03484 0.0027,0.05474 0.01208,0.04415 0.0095,-0.01059 0.01179,-0.03914 0.005,-0.0634 z m -2.739572,-0.202571 c 2.92e-4,-0.0061 -0.03113,-0.04857 -0.06981,-0.09469 l -0.07033,-0.08385 0.06103,0.09426 c 0.05703,0.08812 0.07787,0.110296 0.07912,0.08436 z m 4.348793,0.161425 c 0.03608,-0.05095 0.03518,-0.05213 -0.0096,-0.013 -0.02717,0.02376 -0.04966,0.04881 -0.04999,0.05572 -0.0013,0.02729 0.02168,0.01075 0.05958,-0.04272 z m 0.08729,-0.128647 c 0.03608,-0.05095 0.03518,-0.05213 -0.0096,-0.01299 -0.04702,0.04113 -0.06261,0.06765 -0.0404,0.06871 0.0056,2.68e-4 0.02809,-0.02477 0.04999,-0.05572 z m 0.211999,-0.263798 c 0.07744,-0.08762 0.134734,-0.159583 0.127317,-0.159939 -0.0074,-3.55e-4 -0.07684,0.071 -0.154292,0.158644 -0.07744,0.08761 -0.134734,0.159574 -0.127315,0.159931 0.0074,3.54e-4 0.07684,-0.071 0.15429,-0.158636 z m -4.928906,-0.114587 c 2.93e-4,-0.0061 -0.03113,-0.04857 -0.06981,-0.09468 l -0.07033,-0.08385 0.06102,0.09426 c 0.05703,0.08812 0.07787,0.110286 0.07912,0.08427 z M 72.102693,65.922811 c -0.0064,-0.02309 -0.01339,-0.005 -0.01559,0.0408 -0.0022,0.04557 0.003,0.06449 0.01162,0.04211 0.0086,-0.02238 0.01037,-0.05972 0.004,-0.08282 z m 10.410208,0.587602 c -0.0085,-0.01145 -0.03165,-0.0137 -0.05157,-0.0051 -0.02203,0.0096 -0.01602,0.01773 0.01533,0.02081 0.02835,0.0032 0.04466,-0.004 0.03623,-0.0157 z m 3.191582,0.129281 c 2.93e-4,-0.0061 -0.03113,-0.04857 -0.06981,-0.09468 l -0.07033,-0.08385 0.06103,0.09426 c 0.05703,0.08812 0.07786,0.110286 0.07911,0.08427 z M 82.31442,66.432516 c -0.01811,-0.01008 -0.04845,-0.01154 -0.06744,-0.0032 -0.01899,0.0083 -0.0042,0.01654 0.03292,0.01832 0.03709,0.0018 0.05264,-0.0054 0.03452,-0.01508 z m -0.187239,-0.04221 c -0.01811,-0.01008 -0.04845,-0.01154 -0.06744,-0.0032 -0.01899,0.0083 -0.0042,0.01654 0.03292,0.01832 0.03709,0.0018 0.05264,-0.0054 0.03452,-0.01508 z m -0.174405,-0.03967 c -0.0085,-0.01145 -0.03164,-0.0137 -0.05158,-0.0051 -0.02203,0.0095 -0.01602,0.01772 0.01533,0.02081 0.02835,0.0032 0.04466,-0.004 0.03623,-0.0157 z m -0.173096,-0.04346 c -0.01811,-0.01008 -0.04845,-0.01154 -0.06744,-0.0032 -0.01899,0.0083 -0.0042,0.01654 0.03292,0.01832 0.03709,0.0018 0.05264,-0.0054 0.03452,-0.01508 z m -0.214215,-0.0435 c -0.01811,-0.01008 -0.04845,-0.01154 -0.06744,-0.0032 -0.01899,0.0083 -0.0042,0.01654 0.03292,0.01832 0.03709,0.0018 0.05264,-0.0054 0.03452,-0.01508 z m 9.534469,0.346848 c 0.06144,-0.07008 0.105657,-0.127765 0.09824,-0.128121 -0.0074,-3.55e-4 -0.06376,0.05672 -0.125213,0.126826 -0.06145,0.07007 -0.105658,0.127765 -0.09824,0.128121 0.0074,3.55e-4 0.06376,-0.05672 0.125213,-0.126826 z M 78.936272,66.106217 c -0.0085,-0.01145 -0.03164,-0.0137 -0.05158,-0.0051 -0.02203,0.0095 -0.01602,0.01772 0.01534,0.02081 0.02835,0.0032 0.04466,-0.004 0.03624,-0.0157 z m 2.387996,0.112831 c -0.01811,-0.01008 -0.04845,-0.01154 -0.06744,-0.0032 -0.01899,0.0083 -0.0042,0.01654 0.03292,0.01832 0.03709,0.0018 0.05264,-0.0054 0.03452,-0.01508 z m 4.200928,0.212794 c 2.93e-4,-0.0061 -0.03113,-0.04857 -0.06981,-0.09468 l -0.07033,-0.08385 0.06103,0.09426 c 0.05703,0.08812 0.07787,0.110296 0.07912,0.08427 z m -6.411343,-0.35212 c -0.01811,-0.01008 -0.04845,-0.01154 -0.06744,-0.0032 -0.01899,0.0083 -0.0042,0.01654 0.03292,0.01832 0.03709,0.0018 0.05264,-0.0054 0.03452,-0.01508 z m 1.996702,0.09606 c -0.01782,-0.01 -0.05422,-0.01221 -0.08088,-0.0048 -0.02667,0.0075 -0.01207,0.01529 0.03242,0.01813 0.04447,0.0029 0.06628,-0.0029 0.04846,-0.01301 z M 72.14398,65.625996 c -0.0064,-0.0231 -0.01339,-0.005 -0.0156,0.0408 -0.0022,0.04557 0.003,0.06449 0.01162,0.04211 0.0086,-0.02237 0.01037,-0.05972 0.004,-0.08282 z m 7.309013,0.435979 c -0.02541,-0.0091 -0.07392,-0.01236 -0.107867,-0.0059 -0.03394,0.0063 -0.01316,0.01409 0.04617,0.01729 0.05934,0.0031 0.08709,-0.0019 0.0617,-0.0115 z m 1.389327,0.06619 c -0.0328,-0.0095 -0.09349,-0.0124 -0.134853,-0.007 -0.04139,0.0059 -0.01454,0.01342 0.05965,0.01715 0.07417,0.0038 0.108024,-9.22e-4 0.07522,-0.01024 z m -0.901713,-0.0773 c -0.05491,-0.0096 -0.152023,-0.01431 -0.215796,-0.01058 -0.06378,0.0039 -0.01886,0.01198 0.09982,0.01777 0.118686,0.0058 0.170859,0.0029 0.115973,-0.0072 z m 0.376348,0.01797 c -0.05563,-0.0097 -0.140605,-0.01376 -0.188842,-0.0088 -0.04823,0.0047 -0.0027,0.0131 0.101136,0.01792 0.103863,0.0048 0.143329,7.74e-4 0.08771,-0.0091 z m 5.02895,0.15524 c 2.92e-4,-0.0061 -0.03113,-0.04857 -0.06981,-0.09468 l -0.07033,-0.08385 0.06103,0.09426 c 0.05703,0.08812 0.07787,0.110296 0.07912,0.08427 z m 8.818957,0.314466 c -0.0085,-0.01145 -0.03164,-0.0137 -0.05157,-0.0051 -0.02202,0.0095 -0.01601,0.01772 0.01534,0.02081 0.02834,0.0032 0.04466,-0.004 0.03624,-0.0157 z m 0.13647,-0.02667 c -0.0085,-0.01145 -0.03164,-0.0137 -0.05158,-0.0051 -0.02202,0.0095 -0.01601,0.01772 0.01534,0.02081 0.02834,0.0032 0.04466,-0.004 0.03623,-0.0157 z M 72.185277,65.328948 c -0.0064,-0.0231 -0.01339,-0.005 -0.01559,0.0408 -0.0022,0.04557 0.003,0.06449 0.01161,0.0421 0.0086,-0.02238 0.01038,-0.05972 0.004,-0.08282 z m 22.252534,1.15608 c -0.0085,-0.01145 -0.03165,-0.0137 -0.05158,-0.0051 -0.02202,0.0095 -0.01601,0.01772 0.01534,0.02081 0.02835,0.0032 0.04466,-0.004 0.03623,-0.0157 z m 0.136468,-0.02667 c -0.0085,-0.01145 -0.03164,-0.0137 -0.05158,-0.0051 -0.02202,0.0095 -0.01601,0.01772 0.01534,0.02081 0.02835,0.0032 0.04466,-0.004 0.03624,-0.0157 z m -9.433037,-0.47675 c 2.92e-4,-0.0061 -0.03113,-0.04857 -0.06981,-0.09468 l -0.07033,-0.08394 0.06103,0.09427 c 0.05703,0.08812 0.07787,0.110295 0.07912,0.08427 z m 6.403057,0.102331 c 0.101266,-0.113862 0.178052,-0.207319 0.170634,-0.207675 -0.0074,-3.55e-4 -0.09635,0.09252 -0.197611,0.20638 -0.101266,0.113864 -0.178051,0.207311 -0.170632,0.207667 0.0074,3.55e-4 0.09635,-0.09251 0.197609,-0.206372 z m 3.685347,0.239854 c -0.0085,-0.01145 -0.03164,-0.0137 -0.05158,-0.0051 -0.02202,0.0095 -0.01601,0.01772 0.01534,0.02081 0.02834,0.0032 0.04466,-0.004 0.03624,-0.0157 z m 9.496714,0.403289 c -0.008,-0.02684 -0.0142,-0.01926 -0.0173,0.01925 -0.003,0.03486 0.002,0.05473 0.0121,0.04414 0.01,-0.01059 0.0119,-0.03914 0.005,-0.0634 z m -9.346102,-0.43121 c -0.0181,-0.01008 -0.04844,-0.01154 -0.06744,-0.0032 -0.01898,0.0083 -0.0042,0.01654 0.03291,0.01832 0.03709,0.0018 0.05264,-0.0054 0.03452,-0.01508 z m -22.792359,-1.12708 c -0.01782,-0.01 -0.05422,-0.01221 -0.08088,-0.0048 -0.02667,0.0075 -0.01207,0.01529 0.03241,0.01812 0.04447,0.0029 0.06628,-0.0029 0.04846,-0.01301 z m 12.374055,0.604965 c 2.92e-4,-0.0061 -0.03113,-0.04857 -0.0698,-0.09468 l -0.07033,-0.08393 0.06102,0.09426 c 0.05703,0.08812 0.07787,0.110295 0.07912,0.08427 z m 10.621558,0.500566 c -0.0085,-0.01145 -0.03164,-0.0137 -0.05158,-0.0051 -0.02202,0.0096 -0.01601,0.01773 0.01534,0.02081 0.02835,0.0032 0.04467,-0.004 0.03625,-0.0157 z M 72.790655,65.146951 c -0.0085,-0.01145 -0.03164,-0.0137 -0.05158,-0.0051 -0.02203,0.0095 -0.01602,0.01772 0.01533,0.02081 0.02835,0.0032 0.04466,-0.004 0.03624,-0.0157 z m 22.956304,1.101992 c -0.0085,-0.01145 -0.03164,-0.0137 -0.05158,-0.0051 -0.02202,0.0095 -0.01601,0.01772 0.01534,0.02081 0.02835,0.0032 0.04466,-0.004 0.03624,-0.0157 z M 73.022193,65.122915 c -0.01811,-0.01008 -0.04845,-0.01154 -0.06744,-0.0032 -0.01899,0.0083 -0.0042,0.01654 0.03292,0.01832 0.03709,0.0018 0.05264,-0.0054 0.03452,-0.01508 z m 0.271347,-0.02019 c -0.01811,-0.01008 -0.04845,-0.01154 -0.06744,-0.0032 -0.01899,0.0083 -0.0042,0.01654 0.03292,0.01832 0.03709,0.0018 0.05264,-0.0054 0.03452,-0.01508 z m 0.271849,-0.01991 c -0.01782,-0.01 -0.05422,-0.01221 -0.08088,-0.0048 -0.02667,0.0075 -0.01207,0.01529 0.03242,0.01813 0.04447,0.0029 0.06628,-0.0029 0.04846,-0.01301 z m 0.189916,-0.02428 c -0.0181,-0.01008 -0.04845,-0.01154 -0.06744,-0.0032 -0.01899,0.0083 -0.0042,0.01654 0.03291,0.01832 0.03709,0.0018 0.05264,-0.0054 0.03452,-0.01508 z m 0.163446,-0.02537 c -0.01811,-0.01008 -0.04845,-0.01154 -0.06744,-0.0032 -0.01899,0.0083 -0.0042,0.01654 0.03292,0.01832 0.03709,0.0018 0.05264,-0.0054 0.03452,-0.01508 z m 0.176278,-0.02283 c -0.0085,-0.01145 -0.03164,-0.0137 -0.05158,-0.0051 -0.02203,0.0095 -0.01602,0.01772 0.01533,0.02081 0.02835,0.0032 0.04466,-0.004 0.03623,-0.0157 z m 0.163445,-0.02537 c -0.0085,-0.01145 -0.03164,-0.0137 -0.05158,-0.0051 -0.02203,0.0095 -0.01602,0.01772 0.01534,0.02081 0.02835,0.0032 0.04466,-0.004 0.03623,-0.0157 z m 10.421098,0.475625 c 2.92e-4,-0.0061 -0.0254,-0.04111 -0.05711,-0.07743 l -0.05767,-0.06606 0.04781,0.07698 c 0.04493,0.07237 0.0657,0.093 0.06697,0.06651 z m -9.983124,-0.58746 c -0.0085,-0.01145 -0.03165,-0.0137 -0.05158,-0.0051 -0.02203,0.0095 -0.01602,0.01772 0.01534,0.02081 0.02835,0.0032 0.04466,-0.004 0.03624,-0.0157 z m 17.25162,0.756883 c 0.03608,-0.05095 0.03518,-0.05213 -0.0096,-0.01299 -0.02717,0.02376 -0.04966,0.04881 -0.04999,0.05572 -0.0013,0.02729 0.02168,0.01075 0.05957,-0.04272 z m -7.422396,-0.342888 c 2.93e-4,-0.0061 -0.0254,-0.04111 -0.05712,-0.07743 l -0.05766,-0.06606 0.04781,0.07698 c 0.04493,0.07237 0.0657,0.093 0.06697,0.06651 z m -0.128464,-0.140082 c 3.36e-4,-0.007 -0.01966,-0.03399 -0.04442,-0.06025 -0.0408,-0.04325 -0.04182,-0.04215 -0.01079,0.01202 0.03259,0.05688 0.0539,0.07552 0.05521,0.04823 z m 7.815222,0.25486 c 0.02861,-0.03518 0.04594,-0.06424 0.03851,-0.0646 -0.0074,-3.55e-4 -0.03689,0.02812 -0.0655,0.0633 -0.02861,0.03518 -0.04594,0.06424 -0.03852,0.0646 0.0074,3.55e-4 0.03689,-0.02812 0.06549,-0.0633 z m 0.200468,-0.197943 0.08441,-0.103881 -0.09234,0.09311 c -0.08607,0.08678 -0.105738,0.113245 -0.0849,0.114245 0.0046,2.21e-4 0.04643,-0.04634 0.09284,-0.103476 z m -1.261999,-0.218344 c 0.02861,-0.03518 0.04594,-0.06424 0.03852,-0.0646 -0.0074,-3.55e-4 -0.03689,0.02812 -0.06549,0.0633 -0.02861,0.03518 -0.04594,0.06424 -0.03851,0.0646 0.0074,3.55e-4 0.03689,-0.02812 0.06549,-0.0633 z m 1.447832,0.0446 c 0.03607,-0.05095 0.03518,-0.05213 -0.0096,-0.013 -0.02716,0.02376 -0.04966,0.04881 -0.04999,0.05572 -0.0013,0.02729 0.02168,0.01075 0.05957,-0.04272 z m 0.141241,-0.126057 c 0.03608,-0.05095 0.03518,-0.05213 -0.0096,-0.013 -0.04702,0.04113 -0.06261,0.06765 -0.0404,0.06871 0.0056,2.69e-4 0.02809,-0.02477 0.04999,-0.05572 z m 0.309455,-0.250818 c 0.03608,-0.05095 0.03518,-0.05213 -0.0096,-0.013 -0.02717,0.02376 -0.04966,0.04881 -0.04999,0.05572 -0.0013,0.02729 0.02168,0.01075 0.05957,-0.04272 z m -1.492241,-0.245993 c 0.06144,-0.07008 0.105658,-0.127765 0.09824,-0.128121 -0.0074,-3.55e-4 -0.06376,0.05672 -0.125214,0.126826 -0.06144,0.07015 -0.105657,0.127764 -0.09824,0.128121 0.0074,3.55e-4 0.06376,-0.05672 0.125214,-0.126826 z M 78.266911,63.716061 c -0.0085,-0.01145 -0.03164,-0.0137 -0.05158,-0.0051 -0.02203,0.0096 -0.01602,0.01773 0.01533,0.02081 0.02834,0.0032 0.04466,-0.004 0.03624,-0.0157 z m 11.935822,0.534923 c 0.03607,-0.05095 0.03517,-0.05213 -0.0096,-0.01299 -0.02716,0.02376 -0.04966,0.04881 -0.04999,0.05572 -0.0013,0.02729 0.02168,0.01075 0.05958,-0.04272 z M 78.485899,63.660127 c -0.0085,-0.01145 -0.03164,-0.0137 -0.05158,-0.0051 -0.02203,0.0095 -0.01602,0.01772 0.01534,0.02081 0.02835,0.0032 0.04466,-0.004 0.03624,-0.0157 z m 4.087464,0.194412 c -0.01811,-0.01008 -0.04845,-0.01154 -0.06744,-0.0032 -0.01899,0.0083 -0.0042,0.01654 0.03292,0.01832 0.03709,0.0018 0.05264,-0.0054 0.03452,-0.01508 z m 21.297647,1.021617 c -0.0254,-0.0091 -0.0739,-0.01236 -0.10787,-0.0059 -0.0339,0.0063 -0.0131,0.0141 0.0461,0.01729 0.0593,0.0031 0.0871,-0.0019 0.0617,-0.0115 z M 82.37198,63.813613 c -0.0085,-0.01145 -0.03164,-0.0137 -0.05157,-0.0051 -0.02203,0.0095 -0.01602,0.01772 0.01534,0.02081 0.02835,0.0032 0.04466,-0.004 0.03623,-0.0157 z m 9.754935,-0.0098 c 0.219563,-0.245176 0.393135,-0.446066 0.385718,-0.446422 -0.0074,-3.54e-4 -0.193129,0.199951 -0.412692,0.445127 -0.219563,0.245167 -0.393135,0.446057 -0.385717,0.446413 0.0074,3.55e-4 0.193131,-0.199951 0.412691,-0.445118 z m 11.422565,0.993192 c -0.008,-0.01145 -0.0317,-0.01371 -0.0515,-0.0051 -0.022,0.0095 -0.0161,0.01772 0.0153,0.02081 0.0283,0.0032 0.0446,-0.004 0.0363,-0.0157 z M 78.814368,63.57649 c -0.0085,-0.01145 -0.03165,-0.0137 -0.05158,-0.0051 -0.02203,0.0095 -0.01602,0.01772 0.01533,0.02081 0.02835,0.0032 0.04466,-0.004 0.03624,-0.0157 z m 3.291032,0.157983 c -0.0085,-0.01145 -0.03164,-0.0137 -0.05157,-0.0051 -0.02203,0.0095 -0.01602,0.01772 0.01533,0.02081 0.02835,0.0032 0.04466,-0.004 0.03624,-0.0157 z m 21.31078,1.023001 c -0.008,-0.01145 -0.0317,-0.01371 -0.0515,-0.0051 -0.022,0.0095 -0.016,0.01772 0.0153,0.02081 0.0284,0.0032 0.0446,-0.004 0.0363,-0.0157 z M 81.945138,63.693561 c -0.0085,-0.01145 -0.03164,-0.0137 -0.05158,-0.0051 -0.02203,0.0095 -0.01602,0.01772 0.01534,0.02081 0.02835,0.0032 0.04466,-0.004 0.03623,-0.0157 z m 21.310792,1.023002 c -0.008,-0.01145 -0.0317,-0.01371 -0.0515,-0.0051 -0.022,0.0095 -0.016,0.01773 0.0153,0.02081 0.0284,0.0032 0.0446,-0.004 0.0363,-0.0157 z M 79.128425,63.523198 c -0.01811,-0.01008 -0.04845,-0.01154 -0.06744,-0.0032 -0.01899,0.0083 -0.0042,0.01654 0.03292,0.01832 0.03709,0.0018 0.05264,-0.0054 0.03452,-0.01508 z m 2.656455,0.129322 c -0.0085,-0.01145 -0.03164,-0.0137 -0.05158,-0.0051 -0.02203,0.0096 -0.01602,0.01773 0.01533,0.02081 0.02835,0.0032 0.04466,-0.004 0.03624,-0.0157 z m 21.31078,1.023001 c -0.008,-0.01145 -0.0317,-0.01371 -0.0515,-0.0051 -0.022,0.0096 -0.016,0.01774 0.0153,0.02081 0.0284,0.0032 0.0446,-0.004 0.0363,-0.0157 z m -23.776809,-1.17653 c -0.01811,-0.01008 -0.04845,-0.01154 -0.06744,-0.0032 -0.01899,0.0083 -0.0042,0.01654 0.03292,0.01832 0.03709,0.0018 0.05264,-0.0054 0.03452,-0.01508 z m 2.278797,0.111193 c -0.0085,-0.01145 -0.03165,-0.0137 -0.05158,-0.0051 -0.02203,0.0095 -0.01602,0.01773 0.01533,0.02081 0.02835,0.0032 0.04466,-0.004 0.03623,-0.0157 z M 102.9354,64.63448 c -0.008,-0.01145 -0.0317,-0.01371 -0.0515,-0.0051 -0.022,0.0095 -0.0161,0.01773 0.0153,0.02081 0.0284,0.0032 0.0446,-0.004 0.0363,-0.0157 z M 79.56323,63.477373 c -0.01811,-0.01008 -0.04845,-0.01154 -0.06744,-0.0032 -0.01899,0.0083 -0.0042,0.01654 0.03292,0.01832 0.03709,0.0018 0.05264,-0.0054 0.03452,-0.01508 z m 1.888801,0.09088 c -0.01782,-0.01 -0.05422,-0.01221 -0.08089,-0.0048 -0.02667,0.0075 -0.01207,0.01529 0.03242,0.01813 0.04447,0.0029 0.06628,-0.0029 0.04846,-0.01301 z m 21.323109,1.025395 c -0.008,-0.01145 -0.0316,-0.0137 -0.0515,-0.0051 -0.022,0.0095 -0.016,0.01772 0.0153,0.02081 0.0284,0.0032 0.0446,-0.004 0.0363,-0.0157 z M 80.050379,63.46762 c -0.01811,-0.01008 -0.04845,-0.01154 -0.06744,-0.0032 -0.01899,0.0083 -0.0042,0.01654 0.03292,0.01832 0.03709,0.0018 0.05264,-0.0054 0.03452,-0.01508 z m 0.337546,0.01545 c -0.02537,-0.01003 -0.07392,-0.01236 -0.107865,-0.0059 -0.03394,0.0063 -0.01316,0.01409 0.04617,0.01729 0.05933,0.0033 0.08709,-0.0019 0.0617,-0.0115 z m 0.836247,0.04014 c -0.02537,-0.01003 -0.07392,-0.01236 -0.107866,-0.0059 -0.03394,0.0063 -0.01316,0.01409 0.04617,0.01729 0.05933,0.0033 0.08709,-0.0019 0.0617,-0.0115 z m 21.390708,1.029441 c -0.008,-0.01145 -0.0317,-0.01371 -0.0515,-0.0051 -0.022,0.0096 -0.0161,0.01773 0.0153,0.02081 0.0283,0.0032 0.0446,-0.004 0.0363,-0.0157 z m -0.1731,-0.04346 c -0.0181,-0.01008 -0.0484,-0.01153 -0.0674,-0.0032 -0.019,0.0083 -0.005,0.01651 0.033,0.01832 0.0371,0.0018 0.0527,-0.0054 0.0346,-0.01508 z m -0.16026,-0.04091 c -0.0181,-0.01008 -0.0484,-0.01153 -0.0674,-0.0032 -0.019,0.0083 -0.005,0.01651 0.033,0.01832 0.037,0.0018 0.0527,-0.0054 0.0346,-0.01508 z m -0.17441,-0.03967 c -0.008,-0.01145 -0.0317,-0.01371 -0.0515,-0.0051 -0.022,0.0095 -0.016,0.01772 0.0153,0.02081 0.0284,0.0032 0.0446,-0.004 0.0363,-0.0157 z m -11.059142,-1.24149 c 0.329675,-0.367748 0.59334,-0.668924 0.585921,-0.66928 -0.0074,-3.55e-4 -0.283221,0.300237 -0.612896,0.667985 -0.329675,0.367739 -0.59334,0.668915 -0.58592,0.669272 0.0074,3.54e-4 0.283219,-0.300238 0.612895,-0.667977 z m 10.898882,1.200522 c -0.008,-0.01145 -0.0317,-0.01371 -0.0515,-0.0051 -0.022,0.0096 -0.016,0.01774 0.0153,0.02081 0.0284,0.0032 0.0446,-0.004 0.0363,-0.0157 z m -7.79437,-0.407379 c -0.0085,-0.01145 -0.03164,-0.0137 -0.05157,-0.0051 -0.02202,0.0096 -0.01601,0.01773 0.01534,0.02081 0.02835,0.0032 0.04466,-0.004 0.03624,-0.0157 z m 7.62127,0.364049 c -0.0181,-0.01008 -0.0484,-0.01153 -0.0674,-0.0032 -0.019,0.0083 -0.004,0.01656 0.033,0.01832 0.0371,0.0018 0.0527,-0.0054 0.0346,-0.01508 z m -0.16026,-0.04091 c -0.0181,-0.01008 -0.0484,-0.01153 -0.0674,-0.0032 -0.019,0.0083 -0.005,0.01651 0.033,0.01832 0.0371,0.0018 0.0527,-0.0054 0.0346,-0.01508 z m -0.21422,-0.0435 c -0.0181,-0.01008 -0.0484,-0.01153 -0.0674,-0.0032 -0.019,0.0083 -0.005,0.01651 0.033,0.01832 0.0371,0.0018 0.0527,-0.0054 0.0346,-0.01508 z m -0.1744,-0.03967 c -0.008,-0.01145 -0.0317,-0.0137 -0.0515,-0.0051 -0.022,0.0095 -0.0161,0.01772 0.0153,0.02081 0.0284,0.0032 0.0446,-0.004 0.0363,-0.0157 z m -0.19958,-0.04456 c -0.0178,-0.01 -0.0542,-0.01221 -0.0809,-0.0048 -0.0267,0.0075 -0.012,0.01529 0.0325,0.01813 0.0445,0.0029 0.0662,-0.0029 0.0485,-0.01301 z m -0.21471,-0.0437 c -0.0181,-0.01008 -0.0484,-0.01154 -0.0674,-0.0032 -0.019,0.0083 -0.005,0.01651 0.033,0.01832 0.0371,0.0018 0.0527,-0.0054 0.0346,-0.01508 z m -0.21422,-0.0435 c -0.0181,-0.01008 -0.0484,-0.01153 -0.0674,-0.0032 -0.019,0.0083 -0.005,0.01651 0.033,0.01832 0.0371,0.0018 0.0527,-0.0054 0.0346,-0.01508 z m -5.67584,-0.336937 c -0.0085,-0.01145 -0.03164,-0.0137 -0.05157,-0.0051 -0.02202,0.0096 -0.01601,0.01773 0.01534,0.02081 0.02835,0.0032 0.04466,-0.004 0.03623,-0.0157 z m 0.136469,-0.02667 c -0.0085,-0.01145 -0.03164,-0.0137 -0.05158,-0.0051 -0.02202,0.0095 -0.01601,0.01772 0.01534,0.02081 0.02835,0.0032 0.04466,-0.004 0.03624,-0.0157 z m 0.232044,-0.02384 c -0.01783,-0.01 -0.05422,-0.01221 -0.08089,-0.0048 -0.02667,0.0075 -0.01206,0.01529 0.03242,0.01812 0.04447,0.0029 0.06628,-0.0029 0.04845,-0.01301 z m 0.270844,-0.0204 c -0.0181,-0.01008 -0.04845,-0.01154 -0.06744,-0.0032 -0.01898,0.0083 -0.0042,0.01654 0.03292,0.01832 0.03709,0.0018 0.05264,-0.0054 0.03452,-0.01508 z m 0.19042,-0.02408 c -0.0181,-0.01008 -0.04845,-0.01154 -0.06744,-0.0032 -0.01898,0.0083 -0.0042,0.01654 0.03292,0.01832 0.03709,0.0018 0.05264,-0.0054 0.03452,-0.01508 z m 4.599693,0.22005 c -0.0254,-0.01003 -0.0739,-0.01236 -0.10786,-0.0059 -0.0339,0.0063 -0.0131,0.0141 0.0461,0.01729 0.0594,0.0031 0.0871,-0.0019 0.0617,-0.0115 z m -4.409275,-0.2441 c -0.0181,-0.01008 -0.04844,-0.01154 -0.06744,-0.0032 -0.01898,0.0083 -0.0042,0.01654 0.03292,0.01832 0.03709,0.0018 0.05264,-0.0054 0.03451,-0.01508 z m 4.127775,0.19836 c -0.0178,-0.01 -0.0542,-0.01221 -0.0809,-0.0048 -0.0267,0.0075 -0.012,0.01529 0.0325,0.01813 0.0445,0.0029 0.0663,-0.0029 0.0485,-0.01301 z m -3.937355,-0.222407 c -0.0181,-0.01008 -0.04845,-0.01154 -0.06744,-0.0032 -0.01898,0.0083 -0.0042,0.01654 0.03291,0.01832 0.03709,0.0018 0.05264,-0.0054 0.03452,-0.01508 z m 3.668688,0.176111 c -0.0181,-0.01008 -0.0484,-0.01153 -0.0674,-0.0032 -0.019,0.0083 -0.005,0.01651 0.033,0.01832 0.0371,0.0018 0.0527,-0.0054 0.0346,-0.01508 z m -3.423814,-0.197314 c -0.01783,-0.01 -0.05422,-0.01221 -0.08088,-0.0048 -0.02666,0.0075 -0.01206,0.01529 0.03242,0.01812 0.04447,0.0029 0.06628,-0.0029 0.04846,-0.01301 z m 3.182624,0.152568 c -0.0181,-0.01008 -0.0484,-0.01153 -0.0674,-0.0032 -0.019,0.0083 -0.005,0.01651 0.0329,0.01832 0.0371,0.0018 0.0527,-0.0054 0.0346,-0.01508 z m -2.884288,-0.171766 c -0.01783,-0.01 -0.05422,-0.01221 -0.08088,-0.0048 -0.02667,0.0075 -0.01206,0.01529 0.03241,0.01812 0.04447,0.0029 0.06628,-0.0029 0.04845,-0.01301 z m 2.494771,0.118883 c -0.0255,-0.01004 -0.0681,-0.01208 -0.0944,-0.0045 -0.0264,0.0075 -0.005,0.01494 0.0465,0.0174 0.0519,0.0025 0.0735,-0.0035 0.048,-0.01287 z m -1.886657,-0.124666 c -0.04042,-0.0099 -0.107184,-0.01305 -0.148364,-0.0071 -0.04117,0.0059 -0.0081,0.01346 0.07352,0.01737 0.0816,0.0039 0.115274,-5.73e-4 0.07485,-0.01025 z m 1.537569,0.07469 c -0.02555,-0.01004 -0.0681,-0.01208 -0.09439,-0.0045 -0.02639,0.0075 -0.0047,0.01494 0.04652,0.0174 0.05194,0.0025 0.07355,-0.0035 0.04797,-0.01286 z m -0.551321,-0.06153 c -0.136939,-0.01268 -0.361512,-0.02346 -0.49905,-0.02396 -0.137528,-4.95e-4 -0.02549,0.0097 0.249006,0.02291 0.274471,0.01318 0.387016,0.01327 0.250044,10e-4 z m -5.498369,-0.430344 c 0.03608,-0.05095 0.03518,-0.05213 -0.0096,-0.01299 -0.02717,0.02376 -0.04966,0.0488 -0.04999,0.05572 -0.0013,0.02729 0.02168,0.01075 0.05958,-0.04272 z m 0.14124,-0.126057 c 0.03608,-0.05095 0.03518,-0.05213 -0.0096,-0.01299 -0.02717,0.02376 -0.04966,0.04881 -0.04999,0.05572 -0.0013,0.02729 0.02168,0.01075 0.05957,-0.04272 z m 0.225348,-0.188437 c 0.03608,-0.05095 0.03518,-0.05213 -0.0096,-0.013 -0.02717,0.02376 -0.04966,0.04881 -0.04999,0.05572 -0.0013,0.02729 0.02168,0.01075 0.05957,-0.04272 z M 93.4742,62.590799 c 0.02795,0.0215 0.02844,0.01767 0.0025,-0.02013 -0.0266,-0.03897 -0.04501,-0.03108 -0.11041,0.04703 l -0.07848,0.09371 0.07588,-0.07359 c 0.04578,-0.04443 0.08958,-0.06302 0.110407,-0.04703 z m -1.699375,-0.182603 c 0.03703,-0.04389 0.06126,-0.08008 0.05384,-0.08043 -0.0074,-3.55e-4 -0.04378,0.03524 -0.08083,0.07914 -0.03703,0.04389 -0.06126,0.08008 -0.05385,0.08043 0.0074,3.55e-4 0.04379,-0.03524 0.08083,-0.07914 z m 0.184089,-0.173816 c 0.02861,-0.03518 0.04594,-0.06424 0.03851,-0.0646 -0.0074,-3.55e-4 -0.03688,0.02812 -0.06549,0.0633 -0.0286,0.03518 -0.04594,0.06424 -0.03851,0.0646 0.0074,3.55e-4 0.03689,-0.02812 0.06549,-0.0633 z m 0.169807,-0.15789 c 0.0286,-0.03518 0.04594,-0.06424 0.03852,-0.0646 -0.0074,-3.55e-4 -0.03688,0.02812 -0.06549,0.0633 -0.02861,0.03518 -0.04594,0.06424 -0.03852,0.0646 0.0074,3.54e-4 0.03689,-0.02812 0.06549,-0.0633 z m 0.169806,-0.1579 c 0.0286,-0.03518 0.04594,-0.06424 0.03852,-0.0646 -0.0074,-3.55e-4 -0.03689,0.02812 -0.0655,0.0633 -0.0286,0.03518 -0.04594,0.06424 -0.03852,0.0646 0.0074,3.54e-4 0.03689,-0.02812 0.0655,-0.0633 z m 0.243471,-0.21248 c 0.03608,-0.05095 0.03518,-0.05213 -0.0096,-0.01299 -0.02717,0.02376 -0.04966,0.04881 -0.04999,0.05572 -0.0013,0.02729 0.02168,0.01075 0.05957,-0.04272 z m 2.968432,-0.515727 c 4.37e-4,-0.0091 -0.02426,-0.0017 -0.05485,0.0163 -0.03061,0.01808 -0.05601,0.04035 -0.05645,0.04945 -4.36e-4,0.0091 0.02425,0.0017 0.05485,-0.0163 0.03061,-0.01808 0.05601,-0.04035 0.05645,-0.04945 z m -1.966043,-0.160824 c 4.37e-4,-0.0091 -0.02426,-0.0017 -0.05485,0.0163 -0.03061,0.01808 -0.05601,0.04035 -0.05645,0.04945 -4.36e-4,0.0091 0.02426,0.0017 0.05485,-0.0163 0.03061,-0.01808 0.05601,-0.04035 0.05645,-0.04945 z m 2.288267,-0.02906 c -0.01161,-0.01572 -0.181611,0.07692 -0.182699,0.09958 -4.22e-4,0.0088 0.0428,-0.0076 0.09599,-0.03545 0.05319,-0.02777 0.09221,-0.05667 0.0867,-0.06413 z m -1.464355,-0.50381 c -0.0078,-0.01064 -0.03007,-0.0015 -0.04946,0.02033 -0.02801,0.03144 -0.02511,0.03544 0.0142,0.01926 0.0272,-0.01114 0.04306,-0.02896 0.03525,-0.0396 z m 0.709058,-0.423046 c 4.37e-4,-0.0091 -0.02426,-0.0017 -0.05485,0.0163 -0.03061,0.01808 -0.05601,0.04035 -0.05645,0.04945 -4.36e-4,0.0091 0.02426,0.0017 0.05485,-0.0163 0.03061,-0.01808 0.05601,-0.04035 0.05645,-0.04945 z m 3.455175,-0.03452 c -0.0085,-0.01145 -0.03168,-0.01371 -0.05152,-0.0051 -0.02198,0.0095 -0.01607,0.01772 0.01532,0.02081 0.02838,0.0032 0.04464,-0.004 0.03629,-0.0157 z m 0.231545,-0.02404 c -0.01814,-0.01008 -0.0484,-0.01153 -0.06742,-0.0032 -0.01902,0.0083 -0.0048,0.01651 0.03296,0.01832 0.03706,0.0018 0.05272,-0.0054 0.03456,-0.01508 z m 0.217379,-0.02278 c -0.0181,-0.01008 -0.0484,-0.01153 -0.06742,-0.0032 -0.01902,0.0083 -0.0048,0.01651 0.03296,0.01832 0.03706,0.0018 0.05272,-0.0054 0.03456,-0.01508 z m 0.21741,-0.02278 c -0.0181,-0.01008 -0.0484,-0.01153 -0.0674,-0.0032 -0.019,0.0083 -0.004,0.01656 0.033,0.01832 0.0371,0.0018 0.0527,-0.0054 0.0346,-0.01508 z m 0.24487,-0.0212 c -0.0178,-0.01 -0.0542,-0.01221 -0.0809,-0.0048 -0.0267,0.0075 -0.0121,0.01529 0.0325,0.01813 0.0445,0.0029 0.0663,-0.0029 0.0485,-0.01301 z m 0.217387,-0.02278 c -0.0178,-0.01 -0.0542,-0.01221 -0.0809,-0.0048 -0.0267,0.0075 -0.012,0.01529 0.0325,0.01813 0.0445,0.0029 0.0662,-0.0029 0.0485,-0.01301 z m 0.24386,-0.02169 c -0.0181,-0.01008 -0.0485,-0.01154 -0.0674,-0.0032 -0.019,0.0083 -0.005,0.01651 0.033,0.01832 0.0371,0.0018 0.0527,-0.0054 0.0346,-0.01508 z m 0.298827,-0.01861 c -0.0178,-0.01 -0.0542,-0.01221 -0.0809,-0.0048 -0.0267,0.0075 -0.0121,0.01529 0.0325,0.01813 0.0445,0.0029 0.0663,-0.0029 0.0485,-0.01301 z m 1.7499,0.0062 c -0.0503,-0.04405 -0.0789,-0.04543 -0.0809,-0.0039 -8.7e-4,0.01819 0.0257,0.03419 0.0592,0.03554 0.0491,0.0019 0.0534,-0.0044 0.0217,-0.03165 z m -1.3945,-0.09035 c -0.0328,-0.0095 -0.0935,-0.0124 -0.13485,-0.007 -0.0414,0.0059 -0.0146,0.01342 0.0596,0.01715 0.0741,0.0038 0.10802,-9.22e-4 0.0753,-0.01023 z m 1.6186,0.0795 c -0.0179,-0.01 -0.0542,-0.01221 -0.0809,-0.0048 -0.0267,0.0075 -0.0121,0.01529 0.0325,0.01813 0.0445,0.0029 0.0662,-0.0029 0.0485,-0.01301 z m -5.704921,-0.305325 c -0.0085,-0.01145 -0.03164,-0.0137 -0.05158,-0.0051 -0.02202,0.0095 -0.01601,0.01772 0.01534,0.02081 0.02835,0.0032 0.04466,-0.004 0.03623,-0.0157 z m 4.911051,0.231345 c -0.0549,-0.0096 -0.15202,-0.01431 -0.21579,-0.01058 -0.0638,0.0039 -0.0189,0.01198 0.0998,0.01777 0.1187,0.0058 0.17087,0.0029 0.11598,-0.0072 z m 0.33848,-0.01461 c -0.0178,-0.01 -0.0542,-0.01221 -0.0809,-0.0048 -0.0267,0.0075 -0.012,0.01529 0.0325,0.01813 0.0445,0.0029 0.0662,-0.0029 0.0485,-0.01301 z m 0.66851,-0.186897 c -0.006,-0.02307 -0.0135,-0.0051 -0.0157,0.0408 -0.002,0.04557 0.003,0.06448 0.0117,0.04203 0.008,-0.0224 0.01,-0.05974 0.004,-0.08282 z m -0.0153,-0.231127 c -0.008,-0.02684 -0.0142,-0.01926 -0.0172,0.01925 -0.003,0.03486 0.002,0.05473 0.0121,0.04415 0.01,-0.01059 0.0119,-0.03914 0.005,-0.0634 z m -4.43652,-0.195531 c -0.0181,-0.01008 -0.04844,-0.01154 -0.06744,-0.0032 -0.01898,0.0083 -0.0042,0.01654 0.03292,0.01832 0.03709,0.0018 0.05264,-0.0054 0.03451,-0.01508 z m 0.533325,-0.13852 c -0.0085,-0.01145 -0.03168,-0.0137 -0.05152,-0.0051 -0.02198,0.0095 -0.01607,0.01772 0.01532,0.02081 0.02838,0.0032 0.04464,-0.004 0.03629,-0.0157 z m 0.136466,-0.02668 c -0.0085,-0.01145 -0.03168,-0.0137 -0.05152,-0.0051 -0.02198,0.0095 -0.01607,0.01772 0.01532,0.02081 0.02838,0.0032 0.04464,-0.004 0.03629,-0.0157 z m 0.177591,-0.02662 c -0.01814,-0.01008 -0.0484,-0.01154 -0.06742,-0.0032 -0.01902,0.0083 -0.0048,0.01651 0.03296,0.01832 0.03706,0.0018 0.05272,-0.0054 0.03456,-0.01508 z m 0.190424,-0.02408 c -0.0181,-0.01008 -0.04841,-0.01153 -0.06743,-0.0032 -0.01902,0.0083 -0.0048,0.01651 0.03296,0.01832 0.03706,0.0018 0.05272,-0.0054 0.03457,-0.01508 z m 0.2179,-0.0225 c -0.0179,-0.01 -0.0542,-0.01221 -0.0809,-0.0048 -0.0267,0.0075 -0.0121,0.01529 0.0325,0.01813 0.0445,0.0029 0.0663,-0.0029 0.0485,-0.01301 z m 0.21688,-0.02299 c -0.0181,-0.01008 -0.0484,-0.01153 -0.0674,-0.0032 -0.019,0.0083 -0.005,0.01651 0.033,0.01832 0.0371,0.0018 0.0527,-0.0054 0.0346,-0.01508 z m 0.217397,-0.02278 c -0.0181,-0.01008 -0.0484,-0.01153 -0.0674,-0.0032 -0.019,0.0083 -0.005,0.01651 0.033,0.01832 0.0371,0.0018 0.0527,-0.0054 0.0346,-0.01508 z m 0.21739,-0.02278 c -0.0181,-0.01008 -0.0484,-0.01153 -0.0674,-0.0032 -0.019,0.0083 -0.005,0.01651 0.033,0.01832 0.037,0.0018 0.0527,-0.0054 0.0346,-0.01508 z m 0.609717,-0.0064 c -0.0844,-0.01016 -0.23006,-0.01805 -0.3237,-0.01566 -0.0936,0.0016 -0.0246,0.01075 0.15349,0.01929 0.17803,0.0086 0.25463,0.0069 0.17021,-0.0037 z m 0.60781,-0.0029 c -0.0328,-0.0095 -0.0935,-0.0124 -0.13486,-0.007 -0.0414,0.0059 -0.0146,0.01333 0.0596,0.01715 0.0741,0.0038 0.10803,-9.21e-4 0.0753,-0.01023 z m 0.24392,-0.02011 c -0.0181,-0.01008 -0.0485,-0.01154 -0.0674,-0.0032 -0.019,0.0083 -0.005,0.01651 0.033,0.01832 0.0371,0.0018 0.0527,-0.0054 0.0346,-0.01508 z m 0.32538,-0.019 c -0.0331,-0.0095 -0.0876,-0.01211 -0.12139,-0.0058 -0.0338,0.0063 -0.007,0.01405 0.06,0.01726 0.0667,0.0032 0.0944,-0.0016 0.0614,-0.01143 z M 74.927949,69.559142 c -0.02187,-0.04927 -0.0047,-0.05703 0.272726,-0.123689 0.322999,-0.07759 1.351118,-0.410792 1.717172,-0.556482 0.159185,-0.06336 0.477665,-0.216272 0.707732,-0.339791 0.496942,-0.266801 0.552694,-0.288143 1.077309,-0.412302 0.326845,-0.07736 0.560338,-0.10529 1.207782,-0.144486 1.21849,-0.07377 1.576373,-0.04057 2.263359,0.209913 0.305206,0.111282 1.033997,0.508429 1.311554,0.714714 0.10828,0.0805 0.284704,0.208697 0.392052,0.284949 0.191802,0.136233 0.287428,0.227859 0.285247,0.273302 -6.09e-4,0.01267 -0.216711,0.01555 -0.48023,0.0064 -0.263517,-0.0091 -0.649743,-0.01077 -0.858274,-0.0037 -0.208531,0.0071 -0.664816,0.0075 -1.01396,8.52e-4 -0.349148,-0.0066 -0.696189,-7.22e-4 -0.771208,0.01312 -0.121168,0.02241 -1.006784,0.03828 -1.799569,0.03233 -0.156076,-0.0014 -0.484815,0.0034 -0.730509,0.01017 -0.245695,0.0068 -0.927295,0.01194 -1.514673,0.01153 -1.061313,-7.2e-4 -1.763326,0.0149 -1.952132,0.04344 -0.05687,0.0086 -0.105338,2.49e-4 -0.114372,-0.0204 z m 0.910524,-0.161507 c 0.0019,-0.03892 -0.01887,-0.03991 -0.09441,-0.0045 -0.04902,0.02298 -0.04689,0.02659 0.01875,0.03176 0.04076,0.0028 0.07479,-0.009 0.07566,-0.02722 z m 0.911567,0.02 c -0.04042,-0.0099 -0.107186,-0.01305 -0.148366,-0.0071 -0.04118,0.0059 -0.0081,0.01346 0.07352,0.01738 0.08161,0.0039 0.115275,-5.73e-4 0.07485,-0.01025 z M 76.106655,69.29084 c -0.0085,-0.01145 -0.03164,-0.0137 -0.05158,-0.0051 -0.02203,0.0095 -0.01602,0.01772 0.01533,0.02081 0.02835,0.0032 0.04466,-0.004 0.03624,-0.0157 z m 3.542775,0.0013 c -0.02541,-0.0091 -0.07392,-0.01236 -0.107866,-0.0059 -0.03394,0.0063 -0.01316,0.0141 0.04617,0.01729 0.05934,0.0031 0.08709,-0.0019 0.0617,-0.0115 z m 0.406437,-0.01459 c -0.04015,-0.0098 -0.11299,-0.01333 -0.161841,-0.008 -0.04882,0.0047 -0.01597,0.01282 0.07304,0.01727 0.08901,0.0045 0.128982,8.4e-5 0.0888,-0.0092 z m 1.401522,0.07078 c -0.0085,-0.01145 -0.03164,-0.0137 -0.05157,-0.0051 -0.02203,0.0095 -0.01602,0.01773 0.01533,0.02081 0.02835,0.0032 0.04466,-0.004 0.03624,-0.0157 z m -1.198172,-0.09267 c -0.01811,-0.01008 -0.04845,-0.01154 -0.06744,-0.0032 -0.01899,0.0083 -0.0042,0.01654 0.03292,0.01832 0.03709,0.0018 0.05264,-0.0054 0.03452,-0.01508 z m 0.512625,0.02281 c -0.04788,-0.0093 -0.126787,-0.01309 -0.175342,-0.0084 -0.04855,0.0047 -0.0094,0.01296 0.08703,0.01759 0.09644,0.0046 0.136182,4.3e-4 0.08831,-0.0092 z m -2.183301,-0.997507 c -0.0085,-0.01145 -0.03164,-0.0137 -0.05158,-0.0051 -0.02203,0.0096 -0.01602,0.01773 0.01533,0.02081 0.02835,0.0032 0.04466,-0.004 0.03623,-0.0157 z m 0.328479,-0.08386 c -0.0085,-0.01145 -0.03164,-0.0137 -0.05158,-0.0051 -0.02203,0.0095 -0.01602,0.01772 0.01533,0.02081 0.02835,0.0032 0.04466,-0.004 0.03624,-0.0157 z m 0.314558,-0.05301 c -0.01782,-0.01 -0.05422,-0.01221 -0.08088,-0.0048 -0.02667,0.0075 -0.01207,0.01529 0.03242,0.01813 0.04447,0.0029 0.06628,-0.0029 0.04846,-0.01301 z m 0.284372,-0.02062 c -0.02555,-0.01004 -0.06803,-0.01208 -0.09441,-0.0045 -0.02639,0.0075 -0.0054,0.01491 0.04648,0.0174 0.05193,0.0025 0.07351,-0.0035 0.04793,-0.01287 z m 0.3253,-0.0176 c -0.02555,-0.01004 -0.06803,-0.01208 -0.09441,-0.0045 -0.02639,0.0075 -0.0054,0.01491 0.04648,0.0174 0.05193,0.0025 0.07351,-0.0035 0.04793,-0.01287 z m 0.298323,-0.01891 c -0.02555,-0.01004 -0.06803,-0.01208 -0.09441,-0.0045 -0.02639,0.0075 -0.0054,0.01491 0.04648,0.0174 0.05193,0.0025 0.07351,-0.0035 0.04793,-0.01287 z m 0.31227,-0.0171 c -0.01782,-0.01 -0.05422,-0.01221 -0.08088,-0.0048 -0.02667,0.0075 -0.01207,0.01529 0.03241,0.01812 0.04447,0.0029 0.06628,-0.0029 0.04845,-0.01301 z m 1.186428,0.05674 c -0.01811,-0.01008 -0.04845,-0.01154 -0.06744,-0.0032 -0.01899,0.0083 -0.0042,0.01654 0.03292,0.01832 0.03709,0.0018 0.05264,-0.0054 0.03452,-0.01508 z m -0.847791,-0.07471 c -0.02537,-0.01003 -0.07392,-0.01236 -0.107867,-0.0059 -0.03394,0.0063 -0.01316,0.01409 0.04617,0.01729 0.05934,0.0031 0.08709,-0.0019 0.0617,-0.0115 z m 0.593154,0.02839 c -0.02554,-0.01004 -0.06803,-0.01208 -0.09441,-0.0045 -0.02639,0.0075 -0.0054,0.01491 0.04648,0.0174 0.05193,0.0025 0.07351,-0.0035 0.04793,-0.01287 z m 10.869317,1.356203 c 0.0069,-0.03316 0.05731,-0.07079 0.121667,-0.09098 0.108604,-0.03406 0.283233,-0.130661 0.499954,-0.276509 0.06148,-0.0414 0.292132,-0.157479 0.512587,-0.25802 0.220452,-0.100533 0.444624,-0.208172 0.498162,-0.239183 0.179048,-0.103713 0.941076,-0.321103 1.493268,-0.425986 0.920122,-0.174765 0.850817,-0.171877 2.290018,-0.09532 0.496821,0.02645 0.915976,0.06386 1.009595,0.0901 0.08801,0.02474 0.354024,0.05968 0.591094,0.07773 0.416437,0.03173 0.920634,0.123697 1.112324,0.202915 0.12391,0.05127 0.30188,0.08637 1.40615,0.27794 0.51618,0.08956 1.20981,0.213898 1.54141,0.276362 0.33159,0.06246 0.7477,0.138759 0.92466,0.169545 0.24361,0.04237 0.32122,0.06731 0.31952,0.102729 -10e-4,0.02571 -0.0393,0.05859 -0.0846,0.07317 -0.0453,0.01448 -0.61104,0.01362 -1.25716,-0.0021 -0.64613,-0.01568 -1.32122,-0.01933 -1.50021,-0.0082 -0.50632,0.03153 -1.01784,0.08313 -1.12752,0.113652 -0.11536,0.03207 -5.033262,0.061 -5.476702,0.03217 -0.163081,-0.01043 -0.564687,-0.0084 -0.892478,0.0048 -0.800192,0.03233 -1.120986,0.0343 -1.133096,0.0071 -0.01052,-0.02365 -0.463639,-0.01785 -0.715403,0.0091 -0.128141,0.01374 -0.143699,0.009 -0.133223,-0.04093 z m 1.078557,-0.182052 c -0.0085,-0.01145 -0.03164,-0.0137 -0.05158,-0.0051 -0.02202,0.0095 -0.01601,0.01772 0.01534,0.02081 0.02835,0.0032 0.04466,-0.004 0.03624,-0.0157 z"
       id="path2-4" /></g></svg>
