<?xml version="1.0" standalone="no"?>
<!DOCTYPE svg PUBLIC "-//W3C//DTD SVG 20010904//EN"
 "http://www.w3.org/TR/2001/REC-SVG-20010904/DTD/svg10.dtd">
<svg version="1.0" xmlns="http://www.w3.org/2000/svg"
 width="352.000000pt" height="352.000000pt" viewBox="0 0 352.000000 352.000000"
 preserveAspectRatio="xMidYMid meet">

<g transform="translate(0.000000,352.000000) scale(0.100000,-0.100000)"
fill="#000000" stroke="none">
<path d="M1615 3503 c-149 -14 -365 -57 -413 -82 -9 -5 -55 -24 -102 -42 -88
-33 -160 -70 -281 -142 -184 -111 -435 -367 -556 -567 -40 -67 -121 -235 -147
-305 -234 -645 -77 -1357 408 -1840 214 -213 465 -363 751 -448 129 -38 343
-69 484 -69 68 0 243 16 311 27 91 16 298 79 375 114 125 57 182 88 270 145
174 112 357 290 477 461 73 106 188 318 188 349 0 8 4 17 9 21 5 3 19 38 30
78 12 39 25 86 30 102 68 232 79 534 30 785 -98 500 -393 915 -844 1188 -107
64 -307 144 -456 181 -114 29 -116 29 -238 41 -173 17 -180 17 -326 3z m419
-143 c131 -23 291 -73 403 -125 41 -19 76 -35 78 -35 6 0 123 -73 190 -118 97
-66 265 -230 345 -338 61 -82 160 -235 160 -248 0 -2 14 -34 30 -70 93 -201
140 -424 140 -666 0 -255 -43 -453 -146 -678 -19 -41 -34 -75 -34 -77 0 -2
-19 -34 -42 -71 -246 -406 -634 -677 -1101 -769 -99 -20 -154 -25 -288 -25
-318 0 -574 70 -863 237 -128 74 -365 288 -437 395 -81 119 -125 188 -145 228
-130 263 -174 437 -181 720 -4 158 -2 203 16 308 23 133 82 322 130 417 17 33
31 63 31 67 0 3 23 43 50 88 165 265 389 472 652 603 173 86 236 108 418 147
122 26 128 27 311 29 127 1 194 -4 283 -19z"/>
<path d="M1635 2752 c-109 -38 -200 -111 -249 -201 -45 -83 -56 -150 -56 -333
l0 -168 -70 0 c-94 0 -166 -28 -218 -84 -67 -73 -67 -72 -67 -546 0 -410 1
-427 21 -470 26 -56 76 -107 129 -131 37 -17 80 -19 636 -19 l595 0 53 26 c56
28 101 80 123 142 10 28 13 138 13 457 0 464 0 468 -63 537 -54 60 -102 80
-204 86 l-88 5 0 166 c0 228 -23 310 -113 408 -56 61 -112 98 -185 122 -77 26
-187 27 -257 3z m259 -101 c63 -28 131 -94 163 -160 27 -54 28 -62 31 -248 l4
-193 -331 0 -331 0 0 173 c0 194 10 246 60 316 89 123 268 173 404 112z m487
-724 c69 -46 69 -44 69 -508 0 -415 0 -416 -22 -449 -13 -18 -36 -43 -51 -54
-28 -21 -36 -21 -617 -21 -581 0 -589 0 -617 21 -15 11 -38 36 -50 54 -23 33
-23 34 -23 449 0 464 0 462 69 508 l34 23 587 0 587 0 34 -23z"/>
<path d="M1725 1581 c-58 -25 -76 -98 -37 -150 18 -25 22 -44 22 -106 0 -88
11 -115 45 -115 43 0 55 24 55 111 0 67 4 85 22 110 29 39 28 94 -4 125 -26
26 -73 38 -103 25z"/>
</g>
</svg>
