<?xml version="1.0" encoding="UTF-8" standalone="no"?>
<!-- Created with Inkscape (http://www.inkscape.org/) -->

<svg
   width="188.02501mm"
   height="193.73276mm"
   viewBox="0 0 188.02501 193.73276"
   version="1.1"
   id="svg1"
   xml:space="preserve"
   xmlns:inkscape="http://www.inkscape.org/namespaces/inkscape"
   xmlns:sodipodi="http://sodipodi.sourceforge.net/DTD/sodipodi-0.dtd"
   xmlns="http://www.w3.org/2000/svg"
   xmlns:svg="http://www.w3.org/2000/svg"><sodipodi:namedview
     id="namedview1"
     pagecolor="#ffffff"
     bordercolor="#000000"
     borderopacity="0.25"
     inkscape:showpageshadow="2"
     inkscape:pageopacity="0.0"
     inkscape:pagecheckerboard="0"
     inkscape:deskcolor="#d1d1d1"
     inkscape:document-units="mm" /><defs
     id="defs1" /><g
     inkscape:label="Warstwa 1"
     inkscape:groupmode="layer"
     id="layer1"
     transform="translate(-11.064221,-15.354269)"><path
       d="m 77.017014,15.558616 c -6.192565,0.08571 -19.82049,0.278557 -30.319993,0.428554 -32.441321,0.428548 -34.926917,0.471405 -35.334041,0.814244 -0.34284,0.278557 -0.34284,1.178516 -0.235703,12.106573 0.06428,6.492545 0.171421,13.563641 0.235703,15.706398 l 0.128566,3.921241 h 28.241519 28.241521 l 2.314177,1.04995 c 1.285649,0.557114 7.07109,3.256987 12.835107,5.956859 5.78544,2.721301 11.356604,5.335463 12.406554,5.828298 l 1.90705,0.878531 -0.14999,1.971331 c -0.06429,1.071379 -0.128567,4.971197 -0.128567,8.656738 v 6.706823 l -14.185043,7.135376 c -7.82106,3.899813 -14.592163,7.306798 -15.063572,7.542503 -0.857102,0.449974 -1.092805,0.449974 -28.32723,0.514255 L 12.091517,94.8192 v 4.028381 c 0,2.228459 0.107138,9.385269 0.214276,15.920669 0.128565,6.5354 0.364269,23.29176 0.535688,37.26253 0.428552,35.03405 0.749965,56.20448 0.857103,56.52589 0.06428,0.15 0.321413,0.34284 0.578544,0.44998 0.278559,0.10714 4.971193,0.10714 10.456647,0 5.485455,-0.0857 16.370653,-0.27856 24.191712,-0.40713 9.021002,-0.14999 14.399318,-0.32141 14.656449,-0.4714 0.407124,-0.21428 0.428551,-0.42855 0.278558,-7.00681 -0.171421,-9.44955 -0.664254,-50.37619 -0.664254,-57.12587 v -5.57116 l 4.392649,-0.12857 c 8.442456,-0.25713 17.442032,-0.25713 17.527741,0.0215 0.04288,0.12856 0.299987,0.4714 0.557116,0.74996 0.235706,0.27856 0.835679,1.04996 1.307084,1.69278 0.471405,0.66425 0.921382,1.19994 1.007092,1.19994 0.08571,0 0.278557,0.23571 0.428554,0.51427 0.321409,0.57854 2.035618,2.91415 2.935571,3.98552 0.685683,0.81425 1.414224,1.79992 2.271325,3.04272 0.299986,0.44997 0.642825,0.81424 0.749963,0.81424 0.128568,0 0.214277,0.10714 0.214277,0.21428 0,0.21427 1.392788,2.09989 2.764153,3.77125 0.642828,0.79282 1.071375,1.34993 1.949914,2.54988 0.34283,0.4714 0.792811,1.04994 1.007091,1.28565 0.21427,0.2357 0.49283,0.57854 0.59997,0.77139 0.12856,0.21427 0.79282,1.11424 1.49993,2.01419 0.70711,0.89995 1.39279,1.82135 1.52135,2.05704 0.12858,0.23572 0.38571,0.57855 0.57855,0.79282 0.77139,0.81425 1.64992,1.92849 1.64992,2.0999 0,0.10715 0.19286,0.36427 0.42855,0.62141 0.44998,0.44998 1.22138,1.43564 2.78558,3.53554 1.0928,1.45707 2.97843,3.89982 3.64269,4.71406 0.44998,0.5357 2.22847,2.89272 3.9641,5.24976 0.51425,0.70711 1.13566,1.4785 1.39278,1.7142 0.23571,0.25713 0.42856,0.55712 0.42856,0.70711 0,0.12857 0.19285,0.36427 0.42855,0.51426 0.2357,0.15 0.42855,0.36427 0.42855,0.47141 0,0.0857 0.27856,0.53569 0.64283,0.96424 1.4785,1.79992 2.27132,2.82844 3.21413,4.1998 0.29999,0.42855 0.7714,1.04995 1.07138,1.37136 0.29999,0.34284 0.72854,0.87853 0.96424,1.19994 0.57854,0.81425 1.71421,2.2499 2.18561,2.78559 0.21428,0.23571 0.49283,0.57855 0.59997,0.77139 0.42855,0.70711 1.07138,1.60707 1.60707,2.24989 0.29999,0.3857 0.72854,0.94282 0.96424,1.26423 0.2357,0.29999 0.59997,0.74997 0.79282,0.96424 0.19284,0.21428 0.4714,0.62139 0.59997,0.87853 0.25713,0.44998 0.49284,0.72854 1.67134,2.03562 0.25715,0.29998 0.47141,0.57855 0.47141,0.6214 0,0.14999 2.46417,3.3427 3.21414,4.13552 l 0.64282,0.72853 5.63545,-0.15 c 10.09238,-0.23569 42.98368,-0.74996 48.51199,-0.74996 5.35689,0 6.38541,-0.10713 6.62112,-0.74995 0.12856,-0.32143 -0.29999,-0.94282 -2.33561,-3.36414 -0.25713,-0.29998 -0.89995,-1.11423 -1.41422,-1.75706 -0.51426,-0.66425 -1.02852,-1.19994 -1.11423,-1.19994 -0.10714,0 -0.19284,-0.12856 -0.19284,-0.29998 0,-0.15 -0.21428,-0.51427 -0.47141,-0.81425 -0.27856,-0.27856 -0.72855,-0.83567 -1.02853,-1.2428 -0.59997,-0.81425 -1.82134,-2.31418 -2.27132,-2.78558 -0.17141,-0.17142 -0.79282,-0.94282 -1.37136,-1.71421 -0.59997,-0.77139 -1.32851,-1.7142 -1.67135,-2.12133 -0.72854,-0.87852 -1.11423,-1.37136 -2.07848,-2.59274 -0.77138,-0.98565 -1.37135,-1.69277 -2.14275,-2.63558 -0.2357,-0.27855 -0.66425,-0.81425 -0.96424,-1.22137 -0.59997,-0.81424 -1.82134,-2.31418 -2.27132,-2.78558 -0.17143,-0.17143 -0.79282,-0.94281 -1.37137,-1.71421 -1.24279,-1.60706 -2.01418,-2.5713 -2.78558,-3.44983 -0.29998,-0.34285 -1.0071,-1.2428 -1.60707,-2.01419 -0.57854,-0.7714 -1.30707,-1.69278 -1.60706,-2.03562 -0.29999,-0.32141 -0.70711,-0.83568 -0.92138,-1.09281 -1.45708,-1.94991 -2.65702,-3.47126 -3.44984,-4.32837 -0.32142,-0.38569 -0.81425,-1.02851 -1.0928,-1.43564 -0.25714,-0.40712 -0.68569,-0.94281 -0.94281,-1.15708 -0.23572,-0.23572 -0.44999,-0.5357 -0.44999,-0.70712 0,-0.14999 -0.0857,-0.27856 -0.19285,-0.27856 -0.0857,0 -0.74996,-0.72853 -1.43564,-1.64992 -0.70712,-0.89995 -1.49993,-1.90705 -1.79992,-2.24989 -0.77138,-0.89996 -1.39279,-1.64992 -2.24989,-2.74272 -1.09281,-1.39281 -1.64992,-2.12134 -2.14276,-2.69988 -0.2357,-0.27856 -0.59997,-0.72854 -0.79281,-0.98567 -0.59998,-0.79282 -1.84278,-2.37846 -2.31418,-2.957 -0.68569,-0.81425 -1.34994,-1.62849 -1.8642,-2.29275 -0.68568,-0.87853 -3.87839,-4.8212 -4.30693,-5.31403 -0.21428,-0.23571 -0.53569,-0.66426 -0.72855,-0.96424 -0.19285,-0.29999 -0.66425,-0.87853 -1.04995,-1.32851 -0.40712,-0.42855 -0.81425,-0.92139 -0.94281,-1.0928 -0.32141,-0.49284 -2.27132,-2.99987 -2.61416,-3.36413 -0.14999,-0.17142 -1.04995,-1.28565 -1.99276,-2.46418 -2.09991,-2.63558 -2.44275,-3.06414 -3.06415,-3.79267 -0.25713,-0.29998 -0.89995,-1.11423 -1.41422,-1.75706 -0.51426,-0.66425 -1.00709,-1.19994 -1.0928,-1.19994 -0.0857,0 -0.2357,-0.23571 -0.29999,-0.53569 -0.0857,-0.29999 -0.2357,-0.53569 -0.38569,-0.53569 -0.29998,0 1.15709,-1.07137 2.18561,-1.58564 1.11423,-0.57854 2.12133,-1.13566 3.32127,-1.84277 0.59997,-0.34283 1.37137,-0.77139 1.71421,-0.94281 0.36426,-0.17142 0.83567,-0.51427 1.04995,-0.74996 0.2357,-0.25714 0.51426,-0.44999 0.62139,-0.44999 0.12857,0 0.44998,-0.21428 0.70712,-0.44997 0.27855,-0.25713 0.68568,-0.57855 0.89995,-0.70712 1.15709,-0.66425 2.18562,-1.43564 2.18562,-1.62849 0,-0.12857 0.12856,-0.21427 0.29998,-0.21427 0.40712,0 2.82844,-1.94991 5.16404,-4.17838 0.6214,-0.59997 1.64993,-1.56421 2.29275,-2.14276 0.64283,-0.59997 1.97134,-2.03562 2.93558,-3.21413 0.98566,-1.17852 1.92847,-2.22846 2.07847,-2.31418 0.17142,-0.0857 0.29998,-0.29998 0.29998,-0.4714 0,-0.17141 0.12857,-0.38569 0.27856,-0.47141 0.17143,-0.0857 0.51427,-0.51426 0.81425,-0.92137 0.27855,-0.40713 0.55711,-0.79283 0.6214,-0.85712 0.29998,-0.29997 1.49993,-2.421309 1.49993,-2.657009 0,-0.17142 0.14999,-0.40712 0.34284,-0.55711 0.17142,-0.17143 0.47141,-0.62141 0.64282,-1.04996 0.17143,-0.40712 0.38571,-0.81424 0.47141,-0.87853 0.27856,-0.19285 1.54278,-2.78557 1.54278,-3.171272 0,-0.192842 0.25714,-0.857103 0.5357,-1.435638 0.29998,-0.59998 0.53569,-1.242805 0.53569,-1.457083 0,-0.214269 0.19284,-0.749969 0.42854,-1.22137 0.23571,-0.449974 0.51427,-1.178515 0.6214,-1.649925 0.10714,-0.449974 0.34284,-1.199942 0.53569,-1.671343 0.17143,-0.47141 0.32141,-1.414224 0.34284,-2.099901 0,-0.685682 0.15,-1.58564 0.34284,-2.035616 0.19285,-0.428554 0.42856,-1.757061 0.53569,-2.935578 0.10714,-1.178517 0.23571,-2.442744 0.3,-2.785582 0.57854,-3.556974 0.7071,-11.356604 0.21426,-14.785016 -0.62139,-4.349795 -1.13566,-7.306796 -1.45707,-8.249607 -0.17142,-0.535693 -0.3857,-1.307084 -0.47141,-1.714203 -0.0857,-0.407125 -0.34284,-1.092808 -0.53568,-1.499932 -0.21428,-0.428548 -0.47141,-1.157088 -0.55712,-1.607065 -0.15,-0.878531 -0.44998,-1.542784 -2.07848,-4.606924 -1.28564,-2.421314 -1.45707,-2.699871 -2.18561,-3.642689 -0.40712,-0.535686 -0.81425,-1.114231 -0.89995,-1.285649 -0.0643,-0.171419 -0.3857,-0.621402 -0.68568,-0.985669 -0.3,-0.385696 -0.79282,-1.007098 -1.09281,-1.392795 -1.49993,-1.971331 -5.46403,-5.742581 -8.6353,-8.185325 -0.32142,-0.257128 -0.85711,-0.685683 -1.15709,-0.96424 -0.29999,-0.257129 -0.66426,-0.471406 -0.81425,-0.471406 -0.15,0 -0.4714,-0.192847 -0.74997,-0.428548 -0.27856,-0.235705 -0.72853,-0.492834 -0.98566,-0.557121 -0.25714,-0.06428 -0.53569,-0.257128 -0.59997,-0.428548 -0.0643,-0.171419 -0.34284,-0.407124 -0.59998,-0.514263 -0.27855,-0.128561 -1.07138,-0.557115 -1.77848,-0.96424 -0.70711,-0.407125 -1.52136,-0.835672 -1.82135,-0.985669 -0.29998,-0.128561 -0.72853,-0.342838 -0.96424,-0.471406 -1.88562,-1.007091 -3.79267,-1.864192 -4.15694,-1.864192 -0.19285,0 -0.6214,-0.192849 -0.98567,-0.428555 -0.34284,-0.235699 -0.8571,-0.428548 -1.11423,-0.428548 -0.25714,0 -0.79282,-0.171425 -1.17851,-0.407124 -0.3857,-0.214277 -1.15709,-0.449983 -1.73563,-0.535692 -0.55713,-0.06428 -1.22138,-0.25713 -1.49994,-0.428548 -0.25712,-0.171419 -1.13566,-0.407125 -1.94991,-0.557115 -0.81424,-0.128568 -1.67134,-0.342845 -1.88562,-0.449983 -0.19284,-0.107139 -1.30709,-0.342839 -2.46417,-0.514257 -1.15709,-0.171425 -2.957,-0.449983 -4.02838,-0.642832 -1.04996,-0.171418 -2.46417,-0.321409 -3.107,-0.321409 -0.64283,0 -2.80701,-0.192848 -4.8212,-0.428554 -3.21413,-0.364267 -4.92833,-0.428554 -14.785007,-0.385696 -6.128285,0.02144 -16.199234,0.107138 -22.391799,0.192848 z m 31.605646,51.940395 c 3.38555,1.607072 5.57116,2.528454 5.95686,2.507025 0.32141,-0.02144 0.57854,0.06429 0.57854,0.192848 0,0.299986 -0.53568,0.835678 -0.8571,0.835678 -0.12856,0 -3.29984,1.542785 -7.07108,3.428407 -3.74983,1.885628 -6.87826,3.428412 -6.94254,3.428412 -0.0643,0 -0.12857,-3.235564 -0.12857,-7.178234 v -7.156805 l 1.56422,0.707111 c 0.83568,0.385696 3.96409,1.842771 6.89967,3.235558 z"
       id="path1"
       style="fill:#000000;stroke:none;stroke-width:0.0214275" /></g></svg>
